<?xml version="1.0" encoding="utf-8"?>
<!-- Generator: Adobe Illustrator 23.0.1, SVG Export Plug-In . SVG Version: 6.00 Build 0)  -->
<svg version="1.1" id="b8be6891-8c6c-471d-9cef-5646484caaf2"
	 xmlns="http://www.w3.org/2000/svg" xmlns:xlink="http://www.w3.org/1999/xlink" x="0px" y="0px" viewBox="0 0 1044.1 832.6"
	 style="enable-background:new 0 0 1044.1 832.6;" xml:space="preserve">
<style type="text/css">
	.st0{opacity:0.9;}
	.st1{opacity:0.1;fill:#1BB1DC;enable-background:new    ;}
	.st2{fill:#3F3D56;}
	.st3{opacity:0.1;enable-background:new    ;}
	.st4{fill:#FBBEBE;}
	.st5{fill:#65617D;}
	.st6{fill:#1BB1DC;}
	.st7{fill:#B2B1BB;}
	.st8{opacity:0.2;enable-background:new    ;}
	.st9{opacity:0.1;fill:#CCCCCC;enable-background:new    ;}
	.st10{fill:#464353;}
	.st11{fill:#333F4F;}
	.st12{fill:#2D394A;stroke:#40868E;stroke-miterlimit:10;}
	.st13{opacity:0.2;}
	.st14{opacity:0.1;}
	.st15{fill:url(#SVGID_1_);}
	.st16{fill:#A1616A;}
	.st17{fill:#FF748E;}
	.st18{fill:#5E5A6B;}
	.st19{fill:#9F9EFF;}
	.st20{fill:url(#SVGID_2_);}
	.st21{fill:#514E7F;}
	.st22{opacity:0.15;enable-background:new    ;}
	.st23{fill:#945B79;}
	.st24{fill:#FFC1C7;}
	.st25{fill:#FF6584;}
	
		.st26{opacity:0.3;fill:none;stroke:#000000;stroke-width:0.75;stroke-miterlimit:10;stroke-dasharray:12;enable-background:new    ;}
	.st27{opacity:0.5;fill:#1BB1DC;enable-background:new    ;}
</style>
<title>business plan</title>
<g class="st0">
	<path class="st1" d="M954.3,407.6C954.3,407.6,954.3,407.7,954.3,407.6c0,0.1,0,0.1,0,0.1c0,0.2-0.1,0.4-0.1,0.7
		c-0.3,1.8-0.6,3.7-1,5.5c-2.8,12.5-8.5,24.9-16.1,36.1c-0.3,0.4-0.6,0.9-0.9,1.3c-0.6,0.8-1.2,1.7-1.8,2.5
		c-0.4,0.6-0.9,1.1-1.3,1.7c-3,3.9-6.2,7.6-9.7,11.1c-1.9,1.9-3.9,3.7-5.8,5.5l-0.9,0.8c-1.1,0.9-2.1,1.8-3.2,2.7
		c-0.5,0.4-1,0.8-1.4,1.1l-0.8,0.6l-0.6,0.4c-0.5,0.4-1.1,0.8-1.6,1.2l-0.4,0.3c-1.3,0.9-2.6,1.8-3.9,2.7c-2.8,1.8-5.7,3.5-8.7,5
		c-1.4,0.7-2.8,1.4-4.2,2c-1.7,0.8-3.4,1.5-5.1,2.1c-0.5,0.2-0.9,0.3-1.4,0.5c-1.3,0.5-2.7,0.9-4,1.3l-0.7,0.2l-0.3,0.1l0,0
		l-0.8,0.2c-4,1.1-8,1.9-12.1,2.5l-0.7,0.1l-0.3,0.1c-5.2,0.8-10.3,1.2-15.5,1.4c-7.1,0.4-14.2,0.4-21.2,0l-1.9-0.1h-0.3
		c-1.3-0.1-2.7-0.2-4-0.4c-0.8-0.1-1.5-0.2-2.3-0.3c-1.2-0.1-2.3-0.3-3.5-0.5h-0.1l-1.1-0.2c-1-0.2-2-0.3-3-0.5l-1-0.2l-1.5-0.3
		l-0.3-0.1c-3.2-0.7-6.4-1.5-9.5-2.5l-0.7-0.2c-2.3-0.8-4.5-1.6-6.6-2.5c-1.6-0.7-3.2-1.4-4.8-2.2c-2.2-1.1-4.4-2.3-6.5-3.6
		c-3-1.8-5.8-3.8-8.6-5.8c-3.6-2.7-7.1-5.6-10.5-8.7l-0.7-0.6l-1.3-1.2c-17.5-15.8-32.1-34.5-43.4-55.2c-1.2-2.2-2.3-4.4-3.4-6.7
		c-0.3-0.7-0.7-1.4-1-2.1c0-0.1-0.1-0.1-0.1-0.2l-0.5-1.1c-1.4-3-2.7-6.1-3.9-9.2l-0.6-1.4l-0.9-2.3l-0.3-1c-1.1-2.9-2.1-5.8-3-8.8
		c-0.2-0.5-0.3-1-0.5-1.5c-0.5-1.6-1-3.2-1.4-4.9c-0.4-1.5-0.8-3-1.2-4.6c-0.1-0.2-0.1-0.5-0.2-0.7c-3.1-13-4.4-27.1-1.3-41.5
		c0.2-1,0.4-1.9,0.7-2.9c0.4-1.4,0.8-2.9,1.3-4.3c0.1-0.3,0.2-0.7,0.3-1l0.1-0.4c0-0.1,0.1-0.2,0.1-0.3c0,0,0-0.1,0.1-0.2
		c0.3-0.7,0.5-1.4,0.8-2.1c0.3-0.7,0.6-1.4,0.9-2.1l0,0l0-0.1c0-0.1,0.1-0.2,0.1-0.3c0.3-0.6,0.5-1.1,0.8-1.7l0.3-0.6l0.1-0.3
		c0.1-0.3,0.3-0.6,0.5-0.9c2.1-4,4.6-7.8,7.5-11.4c1.6-2,3.3-3.8,5.1-5.6c2.7-2.7,5.7-5.1,9-7.2c0.5-0.3,1-0.6,1.5-0.9
		c4.1-2.5,8.7-4.1,13.4-4.9c6.1-0.9,11.9,0.1,17.5,1.5l0.6,0.1c0.9,0.2,1.9,0.5,2.8,0.7c3.3,0.8,6.6,1.7,9.9,2.4
		c3.1,0.7,6.2,1.3,9.4,1.7c3.2,0.4,6.5,0.6,9.7,0.5c0.5,0,1,0,1.5,0c6-0.3,11.9-1.6,17.4-3.8c4.2-1.7,8.1-4.2,11.3-7.5
		c0.6-0.6,1.2-1.3,1.7-2l0,0c0.9-1.2,1.8-2.5,2.5-3.9c0.2-0.4,0.4-0.8,0.6-1.2l0,0c0.1-0.1,0.2-0.3,0.2-0.4l0,0l1.2-2.3l0,0
		c0-0.1,0.1-0.2,0.1-0.2c0.6-1.1,1.1-2.2,1.7-3.3c2.3-4.4,5.1-8.6,8.4-12.3l0,0c3.4-3.8,7.7-6.9,12.4-8.9c0.8-0.3,1.5-0.6,2.4-0.9
		c3.6-1.3,7.4-2,11.2-2c0.5,0,0.9,0,1.3,0c3.8,0.1,7.5,0.8,11.1,2l0,0c5.5,1.9,10.6,4.5,15.3,7.9c7.1,5,13.6,11,19.2,17.6
		c0.4,0.5,0.9,1.1,1.3,1.6c4.8,5.9,9.1,12.3,12.8,18.9c11.2,19.8,18.5,43,23.8,66.6l0.3,1.1c0.1,0.6,0.2,1.1,0.4,1.7
		c0.2,1.1,0.5,2.3,0.7,3.4c0.2,0.8,0.4,1.7,0.5,2.5l0,0c0.1,0.6,0.2,1.2,0.4,1.8c0.1,0.4,0.2,0.8,0.2,1.2c1.3,6.3,2.2,12.7,2.8,19.1
		c0,0.2,0,0.5,0.1,0.7C955.6,391.8,955.4,399.7,954.3,407.6z"/>
	<path class="st2" d="M898,470.4c-0.9-0.2-2.3,0.8-4.2,2.4c-0.9,0.8-1.9,1.7-3,2.8l-0.5,0.5l-0.2,0.2c-1.5,1.4-3,2.9-4.7,4.5
		c-1.1,1-2.1,2-3.3,2.9c-1.5,1.3-2.3,4.8-2.7,9.6c-4,1.1-8,1.9-12.1,2.5l-0.7,0.1l-0.3,0.1c-0.2-1.4-0.4-2.4-0.4-2.4
		s-7-5.8-4.9-13.1c1.2-4.2,12.6-11.9,22.1-17.8c1.2-0.7,2.3-1.4,3.4-2.1l0.7-0.4c0.4-0.3,0.9-0.5,1.3-0.8l3.2-1.9
		c2.2-1.3,3.8-2.2,4.4-2.5l0.2-0.1C896.1,455,900.2,471,898,470.4z"/>
	<path class="st3" d="M898,470.4c-0.9-0.2-2.3,0.8-4.2,2.4c-0.9,0.8-1.9,1.7-3,2.8l-0.5,0.5l-0.2,0.2c-1.5,1.4-3,2.9-4.7,4.5
		c-1.1,1-2.1,2-3.3,2.9c-1.5,1.3-2.3,4.8-2.7,9.6c-4,1.1-8,1.9-12.1,2.5l-0.7,0.1l-0.3,0.1c-0.2-1.4-0.4-2.4-0.4-2.4
		s-7-5.8-4.9-13.1c1.2-4.2,12.6-11.9,22.1-17.8c1.2-0.7,2.3-1.4,3.4-2.1l0.7-0.4c0.4-0.3,0.9-0.5,1.3-0.8l3.2-1.9
		c2.2-1.3,3.8-2.2,4.4-2.5l0.2-0.1C896.1,455,900.2,471,898,470.4z"/>
	<path class="st2" d="M896.3,461.7c0,0-1.4,1.5-3.6,3.8c-0.9,1-2,2.1-3.2,3.3l-0.1,0.1l-0.6,0.6c-1.4,1.5-2.9,3-4.4,4.6
		c-7.9,8.5-16.8,18.4-16.8,19.9c0,0.6-0.2,1.2-0.4,1.7l-0.7,0.1l-0.3,0.1c-5.2,0.8-10.3,1.2-15.5,1.4c-7.1,0.4-14.2,0.4-21.2,0
		l-1.9-0.1h-0.3c-1.3-0.1-2.7-0.2-4-0.4c-0.8-0.1-1.5-0.2-2.3-0.3c0.9-1.3,1.9-2.6,2.8-4c1.9-2.7,3.8-5.5,5.3-8.1
		c0.1-0.1,0.2-0.3,0.3-0.4c0.9-1.5,1.7-3,2.4-4.3c0.6-1.1,1-2.3,1.3-3.6c0.3-1.5,0.7-3,1.4-4.4c3.4-8.7,12.3-26.3,17.3-36l0.4-0.9
		l0.4-0.8c1.6-3.1,2.6-5.1,2.6-5.1l12.2-3.3l0.8-0.2l2.7-0.7l1-0.3l5.8-1.5h0.1l0.2-0.1l6.1-1.6l2-0.5l2.3-0.6l5.9,10l1.7,25
		L896.3,461.7z"/>
	<path class="st3" d="M813.3,495.4c-2.4-3.1-3.8-5-3.8-5s3.4-0.8,7.8-2.1c2.2-0.6,4.8-1.4,7.2-2.2c1.5-0.5,3.1-1.1,4.6-1.6
		c0.8-0.3,1.5-0.6,2.2-0.9c3.2-1.3,5.6-2.7,6.1-3.9c0.1-0.5,0.1-1-0.1-1.5c-0.8-2.2-1.7-4.4-2.8-6.4c-0.4-0.8-0.9-1.6-1.3-2.5
		c-1.5-2.8-3.4-6.1-5.4-9.5c-1.7-2.8-3.5-5.8-5.3-8.8c-1.6-2.6-3.3-5.3-4.9-7.8c0-0.1-0.1-0.2-0.1-0.2c-7.4-11.6-14-21.6-14.3-22
		l0,0l-4.3,10.4l-0.2,0.2l-7.1,6.3l-0.2,0.2c-2.2,2-4.8,4.2-7.3,6.5c-1.9,1.7-3.9,3.4-5.7,5.1c-2.6,2.4-5.1,4.6-7.1,6.4
		c-1.7,1.5-3.3,3-4.8,4.6c-1.3,2.7-2.3,5.5-3.1,8.4c3.4,3,6.9,6,10.5,8.7c2.8,2.1,5.6,4,8.6,5.8c2.1,1.3,4.3,2.5,6.5,3.6
		c1.5,0.8,3.1,1.5,4.8,2.2c2.2,0.9,4.4,1.8,6.6,2.5l0.7,0.2c3.1,1,6.3,1.8,9.5,2.5l0.3,0.1l1.5,0.3L813.3,495.4z"/>
	<path class="st2" d="M872.6,422.1l-0.7,1.1c-0.3,0.4-0.6,1-1.1,1.7c-0.4,0.7-1.1,1.7-1.7,2.7l-0.5,0.8c-1.1,1.7-2.4,3.8-3.9,6.1
		c-0.2,0.3-0.4,0.5-0.5,0.8c-0.2,0.3-0.4,0.6-0.5,0.9c-9.3,14.5-23,36.1-26.4,42.3c-0.3,0.5-0.5,1-0.8,1.5c-0.4,1.1-2.4,2.3-5.2,3.5
		c-0.6,0.3-1.3,0.5-1.9,0.8c-1.5,0.6-3.1,1.2-4.8,1.7c-2.4,0.8-4.9,1.5-7.2,2.2c-4.8,1.4-8.7,2.3-8.7,2.3s1.3,1.8,3.6,4.8l-1.5-0.3
		l-0.3-0.1c-3.2-0.7-6.4-1.5-9.5-2.5l-0.7-0.2c-2.3-0.8-4.5-1.6-6.6-2.5c-1.6-0.7-3.2-1.4-4.8-2.2c-2.2-1.1-4.4-2.3-6.5-3.6
		c-3-1.8-5.8-3.8-8.6-5.8c-3.6-2.7-7.1-5.6-10.5-8.7l-0.7-0.6c0.8-2.6,1.7-5.2,2.9-7.7c0-0.2,2.3-2.3,5.6-5.3c2-1.9,4.5-4.1,7.1-6.4
		l5.7-5.1l6.7-6l0.2-0.2l7-6.2l0.2-0.2l4.4-10.4h0.9l15.8,0.2h0.1h1.5h0.9l5,0.1l5.9,0.1l6.9,0.1l26.9,0.4h0.9l5.1,0.1L872.6,422.1z
		"/>
	<path class="st4" d="M873,314.4l-2.6,23.8c0,0-26.8,10.7-27.4,10.4c-0.6-0.2-17.8-15.7-15-25.9c1.4-5.1,2.1-12.2,2.4-18
		c0.3-5.8,0.2-10.2,0.2-10.2s38.9-13.9,35.5-4.4c-1.3,3.5-0.7,7.6,0.5,11.5C868.2,306.1,870.3,310.4,873,314.4z"/>
	<path class="st3" d="M866.6,301.6c-0.2,0.3-0.5,0.5-0.7,0.8c-9.4,10-25,11-35.6,2.3c0.3-5.8,0.2-10.2,0.2-10.2s38.9-13.9,35.5-4.4
		C864.8,293.5,865.4,297.7,866.6,301.6z"/>
	<path class="st4" d="M873,283.6c0,14.4-11.7,26.1-26.1,26.1c-14.4,0-26.1-11.7-26.1-26.1c0-14.4,11.7-26.1,26.1-26.1
		c14.3-0.1,26,11.5,26.1,25.8C873,283.3,873,283.5,873,283.6z"/>
	<path class="st3" d="M840.8,339c0,0-10.2-22.7-13.7-22.7c-3.5,0-8.9,117.2-8.9,117.2l53.3,0.8l2.2-61.6l-10.9-54.6
		C862.8,318.3,853,339.9,840.8,339z"/>
	<path class="st3" d="M840.8,340.8c0,0-10.2-22.7-13.7-22.7c-3.5,0-8.9,117.2-8.9,117.2l60.5,0.9l-5-61.6l-10.9-54.5
		C862.8,320.1,853,341.6,840.8,340.8z"/>
	<path class="st5" d="M840.8,339.9c0,0-10.2-22.7-13.7-22.7c-3.5,0-8.9,117.2-8.9,117.2l60.5,0.9l-5-61.7l-10.9-54.6
		C862.8,319.2,853,340.7,840.8,339.9z"/>
	<path class="st3" d="M830.9,310.1c0,0-1.8-2.7-4.4-1.8c-2.6,0.9-4.6-1.5-7.2,0.9c-2.6,2.4-13.1,5.7-15,4.6c-2-1.1-8.9,3.7-10.4,6.5
		c-1.5,2.8-6.5,10.4-6.5,10.4s-4.3,5.2-3.7,8c0.6,2.8-1.5,6.1-4.1,7.4c-2.6,1.3-7.8,14.4-7.8,14.4s1.4,17.5-4.5,20.5
		c-5.9,3-1.5,16.3-1.5,16.3l27.7-6.6l7.9-17.8c0,0-3,52.2-6.7,57c-3.7,4.8-4.1,7.8-4.1,7.8s14.4,3,17.4,5.7c3,2.6,11.1-0.6,11.1-0.6
		l7.8-69.4c0,0,2.8-13,2.8-19.8C829.5,346.8,830.9,310.1,830.9,310.1z"/>
	<path class="st6" d="M830,310.1c0,0-1.8-2.7-4.4-1.8c-2.6,0.9-4.6-1.5-7.2,0.9c-2.6,2.4-13,5.7-15,4.6c-2-1.1-8.9,3.7-10.4,6.5
		c-1.5,2.8-6.5,10.4-6.5,10.4s-4.4,5.2-3.7,8s-1.5,6.1-4.1,7.4c-2.6,1.3-7.8,14.4-7.8,14.4s1.4,17.5-4.5,20.5
		c-1.5,0.8-2.3,2.5-2.7,4.6c-1.7,8.5,5.3,16.3,14,16.1l14.9-6.2l7.8-22.5c0,0-3,52.2-6.7,57c-3.7,4.8-4.1,7.8-4.1,7.8
		s14.4,3,17.4,5.7c3,2.6,11.1-0.6,11.1-0.6l7.8-69.4c0,0,2.8-13,2.8-19.8C828.7,346.8,830,310.1,830,310.1z"/>
	<path class="st3" d="M782.1,347.9c0,0,2.6,7.2,9.8,6.5C799.1,353.8,782.1,347.9,782.1,347.9z"/>
	<path class="st3" d="M789.1,337c0,0,4.8,0.9,6.5,5C797.3,346.2,789.1,337,789.1,337z"/>
	<path class="st3" d="M802.5,329.6c0,0.9,3,16.1,0,22.4c-3,6.3-2.6,13.7-2.6,13.7L802.5,329.6z"/>
	<path class="st3" d="M866.8,304.9c0,0,1.7-2,3.4-1.8s2.8,1.3,5,2.2c2.2,0.9,7.4,1.1,7.4,1.7c0,0.7,4.6,3.3,7.6,3.9
		c3,0.6,12.6,7.2,15,19.8c2.4,12.6,6.5,16.3,6.5,16.3l-23.1,11.3c0,0,17.8,75.7,20,81.2c2.2,5.4,2.4,37.6,2.4,37.6
		s-14.1,6.3-17.8,8.3c-3.7,2-2.2-18.7-9.8-30.7s-16.3-29.4-16.3-29.4l-13.3-37.2c0,0-8.5-49.6-1.3-58.7
		C859.8,320.3,867.4,308.1,866.8,304.9z"/>
	<path class="st6" d="M912,476.7c0,0.3,0,0.4,0,0.4l-0.8,0.4l-0.6,0.3l-5.9,2.7c-3.2,1.5-6.8,3.1-9.1,4.2c-0.6,0.3-1,0.5-1.4,0.7
		c-0.3,0.2-0.6,0.2-0.9,0c-1.2-0.8-1.7-4.7-2.5-9.8c-0.3-2.1-0.7-4.4-1.2-6.8c-0.1-0.4-0.2-0.8-0.2-1.1c-0.6-2.5-1.3-5-2.2-7.4
		c-0.7-1.9-1.6-3.8-2.7-5.5c-1-1.5-2-3.2-3-4.9c-2.7-4.6-5.4-9.5-7.7-13.6c-0.2-0.3-0.3-0.6-0.5-0.9c-0.6-1.1-1.1-2.1-1.6-3
		c-1-1.9-1.9-3.6-2.5-4.8l-1-1.9c0-0.1-0.1-0.1-0.1-0.2l-1.2-3.4l-2.3-6.5l-2.7-7.6l-1.3-3.6l-0.9-2.6l-0.3-0.8l-4.6-12.8
		c0,0-0.3-1.9-0.8-4.9c-1.2-8.1-3.4-24.5-3.4-37.3c0-3.1,0.1-6.3,0.5-9.4c0.1-0.3,0.1-0.7,0.2-1c0.1-0.3,0.1-0.7,0.2-1.1
		c0.3-1.8,1-3.5,2-5c7.2-9.1,14.8-21.3,14.2-24.5l0.1-0.2c0.3-0.3,0.7-0.6,1.1-0.9c0.5-0.3,1-0.6,1.5-0.7c0.2,0,0.5,0,0.7,0l0,0
		c1.7,0.2,2.8,1.3,5,2.2c2.2,0.9,7.4,1.1,7.4,1.7c0,0.7,4.6,3.3,7.6,3.9c3,0.7,12.6,7.2,15,19.8c2.3,12.2,6.2,16,6.5,16.3l0,0
		l-0.9,0.4l-13.1,6.4l-2.8,1.4l-6.3,3.1c0,0,1.7,7,4,16.9c0,0.1,0.1,0.3,0.1,0.4c0.1,0.3,0.1,0.6,0.2,0.9c1.7,7.3,3.8,15.9,5.9,24.5
		l0,0l0.2,0.8l0.6,2.5c0.2,0.8,0.4,1.5,0.6,2.3l0.3,1.2c0.6,2.4,1.1,4.7,1.7,7c0.8,3.3,1.6,6.5,2.3,9.4c2,8,3.6,13.9,4.1,15.3
		c0.8,2,1.3,7.6,1.7,13.9C911.8,463,912,474.3,912,476.7z"/>
	<path class="st3" d="M914.8,400.1c-0.6,0.1-1.5,0.2-2.4,0.3c-7,0.6-20.6,0.8-20.6,0.8s-10.2-20.2-18.9-19.6c0,0,8-9.1,11.3-8
		c0.5,0.2,0.9-0.2,1.1-1c0.9-3.9-2.1-17.3-2.1-17.3l-4.1-18.1l24,5.9c2.2,0.4,8.9,3.9,8.9,3.9s0.2,9.4,2,11.5
		c1.7,2.2,3.7,12.6,3.5,15.2c-0.2,2.6,2.4,14.8-0.2,18.1C914.4,395.1,920.2,399.2,914.8,400.1z"/>
	<path class="st6" d="M915.7,400.1c-0.6,0.1-1.5,0.2-2.4,0.3c-7,0.6-20.7,0.8-20.7,0.8s-10.2-20.2-18.9-19.6c0,0,8-9.1,11.3-8
		c0.5,0.2,0.9-0.2,1.1-1c0.9-3.9-2.1-17.3-2.1-17.3l-4.1-18.1l24,5.9c2.2,0.4,8.9,3.9,8.9,3.9s0.2,9.4,2,11.5
		c1.7,2.2,3.7,12.6,3.5,15.2c-0.2,2.6,2.4,14.8-0.2,18.1C915.3,395.1,921.1,399.2,915.7,400.1z"/>
	<path class="st3" d="M891.1,352.7c0,0,20,2.2,20.9,7.2C912.8,364.9,891.1,352.7,891.1,352.7z"/>
	<path class="st3" d="M873,283.6c0,6.7-2.5,13.1-7.1,17.9c0,0,0-0.1-0.1-0.1c-0.8-1.7-1.5-3.4-1.5-5.2c0.1-2.2,1.3-4.2,1.7-6.3
		c0.5-2.7-0.4-5.5-1.3-8.1c-0.6-1.9-1.9-4.3-3.9-4c-0.4,0.1-0.8,0.1-1.2,0.1c-1.1-0.2-1.3-1.5-1.4-2.7c-0.7-5.2-4.7-9.4-9.8-10.3
		c-0.6-0.1-1.2-0.1-1.7,0.1c-0.8,0.3-1.2,1.2-1.8,1.6c-2.2,1.5-5-1.4-7.7-1.2c-2.3,0.2-3.7,2.5-4.6,4.6s-2.1,4.5-4.4,4.9
		c-0.4,0.1-0.7,0.1-1.1-0.1c-0.7-0.5-0.2-1.5,0.1-2.4c0.9-2.1,0.3-3.7-0.8-5.2c9-11.3,25.4-13.1,36.7-4.1
		C869.4,268.1,873,275.6,873,283.6L873,283.6z"/>
	<path class="st7" d="M788.8,487.3c-2.2-1.1-4.4-2.3-6.5-3.6c-3-1.8-5.8-3.8-8.6-5.8l-2.7-21.6l-0.1-0.7l-5.1-41.2l-0.3-2.4l8.4-0.3
		l6-0.2l0.4,3.5l3.4,29l0.1,0.7L788.8,487.3z"/>
	<path class="st3" d="M782.3,483.7c-3-1.8-5.8-3.8-8.6-5.8l-2.7-21.6l-0.1-0.7l-5.1-41.2l-0.3-2.4l8.4-0.3l-0.4,1.3l0.2,1.7L778,449
		l0.1,0.7L782.3,483.7z"/>
	<path class="st7" d="M840.2,412.3l-0.5,3.7l-0.7,5.6l-1.5,12.3l-0.1,0.9l-0.1,0.9l-4.2,33.7l-1.3,10.5l-0.4,3.4l0,0.4l-1.7,13.7
		l-1.9-0.1h-0.3c-1.3-0.1-2.7-0.2-4-0.4c-0.8-0.1-1.5-0.2-2.3-0.3c-1.2-0.1-2.3-0.3-3.5-0.5h-0.1l-1.1-0.2l1.1-7.6v-0.3l4.9-37
		l2.1-15.7l0.1-0.9l0.1-0.9l1.6-12.3l0.7-5.2l0.4-3l0.5,0L840.2,412.3z"/>
	<path class="st8" d="M833,414.3l-0.2,1.8l-0.6,5.4l-1.5,12.3l-0.1,0.9l-0.1,0.9l-2.9,24.4l-3.1,26v0.3l-0.8,6.5l-0.5,4.2
		c-0.8-0.1-1.5-0.2-2.3-0.3c-1.2-0.1-2.3-0.3-3.5-0.5h-0.1l-1.1-0.2l1.1-7.6v-0.3l4.9-37l2.1-15.7l0.1-0.9l0.1-0.9l1.6-12.3l0.7-5.2
		l0.4-3l0.5,0L833,414.3z"/>
	<path class="st5" d="M895.6,484.7l0.3,2.2c-1.4,0.7-2.8,1.4-4.2,2c-1.7,0.8-3.4,1.5-5.1,2.1l-1.3-10.2l-0.9-6.6l-1.5-11.5
		l-1.4-11.1l-0.2-1.8l-3.4-26.9l-0.6-4.7l-0.2-1.5l-0.2-1.4l-0.4-3.2h0.2h0.1l5.9-0.6l1.9-0.2l0.6,3.9l0.8,5.6l5.5,36.9l1.2,7.8
		l1.1,7.3l1.7,11.5L895.6,484.7z"/>
	<path class="st9" d="M895.6,484.7l0.3,2.2c-1.4,0.7-2.8,1.4-4.2,2c-1.7,0.8-3.4,1.5-5.1,2.1l-1.3-10.2l-0.9-6.6l-1.5-11.5
		l-1.4-11.1l-0.2-1.8l-3.4-26.9l-0.6-4.7l-0.2-1.5l-0.2-1.4l-0.4-3.2h0.2h0.1l5.9-0.6l1.9-0.2l0.6,3.9l0.8,5.6l5.5,36.9l1.2,7.8
		l1.1,7.3l1.7,11.5L895.6,484.7z"/>
	<path class="st7" d="M895.9,486.9c-1.4,0.7-2.8,1.4-4.2,2l-0.9-7.7l-0.6-5.1l-0.8-7.2l-0.1-1.2l-0.9-8.2l-4.4-38.2l-0.7-6.1l-0.2-2
		l-0.4-1.8l1.9-0.2l0.6,3.9l0.8,5.6l5.5,36.9l1.2,7.8l1.1,7.3l1.7,11.5l0.1,0.4L895.9,486.9z"/>
	<path class="st5" d="M914.4,411.6l0,3l-0.9,61c-0.5,0.4-1,0.8-1.4,1.1c0,0.3,0,0.4,0,0.4l-0.8,0.4l-0.6,0.3
		c-0.5,0.4-1.1,0.8-1.6,1.2l-0.4,0.3c-1.3,0.9-2.6,1.8-3.9,2.7v-1.5V480l0.8-52.6l0-3.2l0.1-9.5l0.1-4.2l5.9,0.7L914.4,411.6z"/>
	<path class="st9" d="M914.4,411.6l0,3l-0.9,61c-0.5,0.4-1,0.8-1.4,1.1c0,0.3,0,0.4,0,0.4l-0.8,0.4l-0.6,0.3
		c-0.5,0.4-1.1,0.8-1.6,1.2l-0.4,0.3c-1.3,0.9-2.6,1.8-3.9,2.7v-1.5V480l0.8-52.6l0-3.2l0.1-9.5l0.1-4.2l5.9,0.7L914.4,411.6z"/>
	<path class="st7" d="M914.4,411.6l0,3l-0.9,61c-0.5,0.4-1,0.8-1.4,1.1c0,0.3,0,0.4,0,0.4l-0.8,0.4v-0.2l0.1-24l0.2-38.7v-3.4
		L914.4,411.6z"/>
	<path class="st5" d="M954.3,407.7C954.3,407.7,954.3,407.7,954.3,407.7c0,0.3-0.1,0.5-0.1,0.7c-0.3,1.8-0.6,3.7-1,5.5l-38.8,0.7
		l-2.8,0.1l-5.9,0.1l-2.5,0h-0.9l-17.1,0.3h-1.9l-6.2,0.1H877l-4.7,0.1l-7.7,0.1h-0.9l0,0l-24,0.4l-7,0.1l-5.8,0.1l-5.1,0.1H821
		h-1.8h-0.1l-3.9,0.1l-17.6-0.8l-0.9,0l-16.4-0.7l-6.5-0.3l-8-0.3l-48.1-2.1c-1.2-2.2-2.3-4.4-3.4-6.7c-0.3-0.7-0.7-1.4-1-2.1
		l49-0.8l0,0l30.1-0.5l0,0l5.7-0.1h0.9l15.5-0.2l5.3,0.3h0.1l2.7,0.1l0.9,0l10.6,0.6l0,0l25.7,1.4l0.9,0l12,0.7l3.6,0.2h0.1l24,1.3
		l0.9,0.1h0.2L954.3,407.7z"/>
	<path class="st7" d="M954.3,407.7C954.3,407.7,954.3,407.7,954.3,407.7c0,0.3-0.1,0.5-0.1,0.7c-0.3,1.8-0.6,3.7-1,5.5l-38.8,0.7
		l-2.8,0.1l-5.9,0.1l-2.5,0h-0.9l-17.1,0.3h-1.9l-6.2,0.1H877l-4.7,0.1l-7.7,0.1h-0.9l0,0l-24,0.4l-7,0.1l-5.8,0.1l-5.1,0.1H821
		h-1.8h-0.1l-3.9,0.1l-17.6-0.8h-0.9l-16.4-0.7l-6.5-0.3l-8-0.3l-48.1-2.1c-1.2-2.2-2.3-4.4-3.4-6.7c-0.3-0.7-0.7-1.4-1-2.1l49-0.8
		l0,0l30.1-0.5l0,0l5.7-0.1h0.9l15.5-0.2l5.3,0.3h0.1l2.7,0.1l0.9,0.1l10.6,0.6l0,0l25.7,1.4l0.9,0l12,0.7l3.6,0.2h0.1l24,1.3
		l0.9,0.1h0.2L954.3,407.7z"/>
	<path class="st3" d="M954.3,407.7C954.3,407.7,954.3,407.7,954.3,407.7l-52.9,0.2h-0.9l-24.1,0.1h-4h-10.6H861l-38.2,0.1h-3.3
		l-21.1,0.1h-0.9l-22,0.1l-61.2-2.6c-0.3-0.7-0.7-1.4-1-2.1l49-0.8l0,0l30.1-0.5l0,0l5.7-0.1h0.9l15.5-0.2l5.3,0.3h0.1l2.7,0.1
		l0.9,0.1l10.6,0.6l0,0l25.7,1.4l0.9,0l12,0.7l3.6,0.2h0.1l24,1.3l0.9,0.1h0.2L954.3,407.7z"/>
	<path class="st3" d="M903.1,372.3c1.3,0.4,8.9,2.4,10.4,7C915,383.8,903.1,372.3,903.1,372.3z"/>
	<path class="st4" d="M880.6,379.9c0,0-11.1,3.4-16.1,3.4c-5,0-24.6-0.1-24.6-0.1s-51.1-17.1-35.8,6.3
		c15.3,23.4,39.6,10.3,39.6,10.3s2,0.4,4.4,1c2.4,0.5,48.6,0.1,50.2-1.7C899.7,397.2,880.6,379.9,880.6,379.9z"/>
	<path class="st3" d="M912.4,400.4c-7,0.6-20.6,0.8-20.6,0.8s-10.2-20.2-18.9-19.6c0,0,8-9.1,11.3-8c0.5,0.2,0.9-0.2,1.1-1
		c8.5,2.6,24.7,9,26.4,20.1C912,395.7,912.2,398.2,912.4,400.4z"/>
	<path class="st10" d="M913.3,400.4c-7,0.6-20.7,0.8-20.7,0.8s-10.2-20.2-18.9-19.6c0,0,8-9.1,11.3-8c0.5,0.2,0.9-0.2,1.1-1
		c8.5,2.6,24.7,9,26.4,20.1C912.8,395.7,913.1,398.2,913.3,400.4z"/>
	<path class="st3" d="M912.4,400.4c-7,0.6-20.6,0.8-20.6,0.8s-10.2-20.2-18.9-19.6c0,0,8-9.1,11.3-8.1c0.5,0.2,0.9-0.2,1.1-1
		c8.5,2.6,24.7,9,26.4,20.1C912,395.7,912.2,398.3,912.4,400.4z"/>
	<path class="st3" d="M852.1,458.6c0,0,19.6-4.8,22.6-2.2C877.8,459.1,852.1,458.6,852.1,458.6z"/>
	<path class="st3" d="M796,477.3c0,0,8.3,4.8,9.1,8.7C806,490,796,477.3,796,477.3z"/>
	<path class="st11" d="M761,315v85.7c0,1.5,0.8,1.7,2.1,2.4c4.4,2.4,15.1,6.7,27.9-0.1c1.3-0.7,2.1-0.9,2.1-2.4v-85.1
		C793.2,315.5,776.8,322.1,761,315z"/>
	<ellipse class="st12" cx="777.1" cy="314.9" rx="16.1" ry="3.4"/>
	<g class="st13">
		<circle cx="762.5" cy="350.6" r="0.4"/>
		<circle cx="764.3" cy="351.1" r="0.4"/>
		<circle cx="766.6" cy="351.8" r="0.4"/>
		<circle cx="770.6" cy="352.7" r="0.4"/>
		<circle cx="774.9" cy="353.2" r="0.4"/>
		<circle cx="779.3" cy="353.4" r="0.4"/>
		<circle cx="785.7" cy="352.5" r="0.4"/>
		<circle cx="783.6" cy="353" r="0.4"/>
		<circle cx="789.6" cy="351.8" r="0.4"/>
		<circle cx="787.7" cy="352.1" r="0.4"/>
		<circle cx="791.7" cy="351.1" r="0.4"/>
		<circle cx="768.6" cy="352.3" r="0.4"/>
		<circle cx="772.8" cy="353" r="0.4"/>
		<circle cx="777.4" cy="353.4" r="0.4"/>
		<circle cx="781.5" cy="353.4" r="0.4"/>
	</g>
	<g class="st13">
		<circle cx="762.5" cy="352.3" r="0.4"/>
		<circle cx="764.3" cy="352.8" r="0.4"/>
		<circle cx="766.6" cy="353.6" r="0.4"/>
		<circle cx="770.6" cy="354.4" r="0.4"/>
		<circle cx="774.9" cy="355" r="0.4"/>
		<circle cx="779.3" cy="355.2" r="0.4"/>
		<circle cx="785.7" cy="354.3" r="0.4"/>
		<circle cx="783.6" cy="354.8" r="0.4"/>
		<circle cx="789.6" cy="353.6" r="0.4"/>
		<circle cx="787.7" cy="353.9" r="0.4"/>
		<circle cx="791.7" cy="352.8" r="0.4"/>
		<circle cx="768.6" cy="354.1" r="0.4"/>
		<circle cx="772.8" cy="354.8" r="0.4"/>
		<circle cx="777.4" cy="355.2" r="0.4"/>
		<circle cx="781.5" cy="355.2" r="0.4"/>
	</g>
	<g class="st13">
		<circle cx="762.5" cy="354.1" r="0.4"/>
		<circle cx="764.3" cy="354.6" r="0.4"/>
		<circle cx="766.6" cy="355.3" r="0.4"/>
		<circle cx="770.6" cy="356.2" r="0.4"/>
		<circle cx="774.9" cy="356.7" r="0.4"/>
		<circle cx="779.3" cy="356.9" r="0.4"/>
		<circle cx="785.7" cy="356.1" r="0.4"/>
		<circle cx="783.6" cy="356.6" r="0.4"/>
		<circle cx="789.6" cy="355.3" r="0.4"/>
		<circle cx="787.7" cy="355.7" r="0.4"/>
		<circle cx="791.7" cy="354.6" r="0.4"/>
		<circle cx="768.6" cy="355.9" r="0.4"/>
		<circle cx="772.8" cy="356.6" r="0.4"/>
		<circle cx="777.4" cy="356.9" r="0.4"/>
		<circle cx="781.5" cy="356.9" r="0.4"/>
	</g>
	<g class="st13">
		<circle cx="762.5" cy="355.9" r="0.4"/>
		<circle cx="764.3" cy="356.4" r="0.4"/>
		<circle cx="766.6" cy="357.1" r="0.4"/>
		<circle cx="770.6" cy="358" r="0.4"/>
		<circle cx="774.9" cy="358.5" r="0.4"/>
		<circle cx="779.3" cy="358.7" r="0.4"/>
		<circle cx="785.7" cy="357.8" r="0.4"/>
		<circle cx="783.6" cy="358.3" r="0.4"/>
		<circle cx="789.6" cy="357.1" r="0.4"/>
		<circle cx="787.7" cy="357.5" r="0.4"/>
		<circle cx="791.7" cy="356.4" r="0.4"/>
		<circle cx="768.6" cy="357.6" r="0.4"/>
		<circle cx="772.8" cy="358.3" r="0.4"/>
		<circle cx="777.4" cy="358.7" r="0.4"/>
		<circle cx="781.5" cy="358.7" r="0.4"/>
	</g>
	<g class="st13">
		<circle cx="762.5" cy="357.7" r="0.4"/>
		<circle cx="764.3" cy="358.2" r="0.4"/>
		<circle cx="766.6" cy="358.9" r="0.4"/>
		<circle cx="770.6" cy="359.8" r="0.4"/>
		<circle cx="774.9" cy="360.3" r="0.4"/>
		<circle cx="779.3" cy="360.5" r="0.4"/>
		<circle cx="785.7" cy="359.6" r="0.4"/>
		<circle cx="783.6" cy="360.1" r="0.4"/>
		<circle cx="789.6" cy="358.9" r="0.4"/>
		<circle cx="787.7" cy="359.2" r="0.4"/>
		<circle cx="791.7" cy="358.2" r="0.4"/>
		<circle cx="768.6" cy="359.4" r="0.4"/>
		<circle cx="772.8" cy="360.1" r="0.4"/>
		<circle cx="777.4" cy="360.5" r="0.4"/>
		<circle cx="781.5" cy="360.5" r="0.4"/>
	</g>
	<g class="st13">
		<circle cx="762.5" cy="359.4" r="0.4"/>
		<circle cx="764.3" cy="359.9" r="0.4"/>
		<circle cx="766.6" cy="360.7" r="0.4"/>
		<circle cx="770.6" cy="361.5" r="0.4"/>
		<circle cx="774.9" cy="362.1" r="0.4"/>
		<circle cx="779.3" cy="362.3" r="0.4"/>
		<circle cx="785.7" cy="361.4" r="0.4"/>
		<circle cx="783.6" cy="361.9" r="0.4"/>
		<circle cx="789.6" cy="360.7" r="0.4"/>
		<circle cx="787.7" cy="361" r="0.4"/>
		<circle cx="791.7" cy="359.9" r="0.4"/>
		<circle cx="768.6" cy="361.2" r="0.4"/>
		<circle cx="772.8" cy="361.9" r="0.4"/>
		<circle cx="777.4" cy="362.3" r="0.4"/>
		<circle cx="781.5" cy="362.3" r="0.4"/>
	</g>
	<g class="st13">
		<circle cx="762.5" cy="361.2" r="0.4"/>
		<circle cx="764.3" cy="361.7" r="0.4"/>
		<circle cx="766.6" cy="362.4" r="0.4"/>
		<circle cx="770.6" cy="363.3" r="0.4"/>
		<circle cx="774.9" cy="363.8" r="0.4"/>
		<circle cx="779.3" cy="364" r="0.4"/>
		<circle cx="785.7" cy="363.2" r="0.4"/>
		<circle cx="783.6" cy="363.7" r="0.4"/>
		<circle cx="789.6" cy="362.4" r="0.4"/>
		<circle cx="787.7" cy="362.8" r="0.4"/>
		<circle cx="791.7" cy="361.7" r="0.4"/>
		<circle cx="768.6" cy="362.9" r="0.4"/>
		<circle cx="772.8" cy="363.7" r="0.4"/>
		<circle cx="777.4" cy="364" r="0.4"/>
		<circle cx="781.5" cy="364" r="0.4"/>
	</g>
	<g class="st13">
		<circle cx="762.5" cy="363" r="0.4"/>
		<circle cx="764.3" cy="363.5" r="0.4"/>
		<circle cx="766.6" cy="364.2" r="0.4"/>
		<circle cx="770.6" cy="365.1" r="0.4"/>
		<circle cx="774.9" cy="365.6" r="0.4"/>
		<circle cx="779.3" cy="365.8" r="0.4"/>
		<circle cx="785.7" cy="364.9" r="0.4"/>
		<circle cx="783.6" cy="365.4" r="0.4"/>
		<circle cx="789.6" cy="364.2" r="0.4"/>
		<circle cx="787.7" cy="364.6" r="0.4"/>
		<circle cx="791.7" cy="363.5" r="0.4"/>
		<circle cx="768.6" cy="364.7" r="0.4"/>
		<circle cx="772.8" cy="365.4" r="0.4"/>
		<circle cx="777.4" cy="365.8" r="0.4"/>
		<circle cx="781.5" cy="365.8" r="0.4"/>
	</g>
	<g class="st13">
		<circle cx="762.5" cy="364.7" r="0.4"/>
		<circle cx="764.3" cy="365.3" r="0.4"/>
		<circle cx="766.6" cy="366" r="0.4"/>
		<circle cx="770.6" cy="366.9" r="0.4"/>
		<circle cx="774.9" cy="367.4" r="0.4"/>
		<circle cx="779.3" cy="367.6" r="0.4"/>
		<circle cx="785.7" cy="366.7" r="0.4"/>
		<circle cx="783.6" cy="367.2" r="0.4"/>
		<circle cx="789.6" cy="366" r="0.4"/>
		<circle cx="787.7" cy="366.3" r="0.4"/>
		<circle cx="791.7" cy="365.3" r="0.4"/>
		<circle cx="768.6" cy="366.5" r="0.4"/>
		<circle cx="772.8" cy="367.2" r="0.4"/>
		<circle cx="777.4" cy="367.6" r="0.4"/>
		<circle cx="781.5" cy="367.6" r="0.4"/>
	</g>
	<g class="st13">
		<circle cx="762.5" cy="366.5" r="0.4"/>
		<circle cx="764.3" cy="367" r="0.4"/>
		<circle cx="766.6" cy="367.8" r="0.4"/>
		<circle cx="770.6" cy="368.6" r="0.4"/>
		<circle cx="774.9" cy="369.1" r="0.4"/>
		<circle cx="779.3" cy="369.4" r="0.4"/>
		<circle cx="785.7" cy="368.5" r="0.4"/>
		<circle cx="783.6" cy="369" r="0.4"/>
		<circle cx="789.6" cy="367.8" r="0.4"/>
		<circle cx="787.7" cy="368.1" r="0.4"/>
		<circle cx="791.7" cy="367" r="0.4"/>
		<circle cx="768.6" cy="368.3" r="0.4"/>
		<circle cx="772.8" cy="369" r="0.4"/>
		<circle cx="777.4" cy="369.4" r="0.4"/>
		<circle cx="781.5" cy="369.4" r="0.4"/>
	</g>
	<g class="st13">
		<circle cx="762.5" cy="368.3" r="0.4"/>
		<circle cx="764.3" cy="368.8" r="0.4"/>
		<circle cx="766.6" cy="369.5" r="0.4"/>
		<circle cx="770.6" cy="370.4" r="0.4"/>
		<circle cx="774.9" cy="370.9" r="0.4"/>
		<circle cx="779.3" cy="371.1" r="0.4"/>
		<circle cx="785.7" cy="370.3" r="0.4"/>
		<circle cx="783.6" cy="370.8" r="0.4"/>
		<circle cx="789.6" cy="369.5" r="0.4"/>
		<circle cx="787.7" cy="369.9" r="0.4"/>
		<circle cx="791.7" cy="368.8" r="0.4"/>
		<circle cx="768.6" cy="370" r="0.4"/>
		<circle cx="772.8" cy="370.8" r="0.4"/>
		<circle cx="777.4" cy="371.1" r="0.4"/>
		<circle cx="781.5" cy="371.1" r="0.4"/>
	</g>
	<g class="st13">
		<circle cx="762.5" cy="370.1" r="0.4"/>
		<circle cx="764.3" cy="370.6" r="0.4"/>
		<circle cx="766.6" cy="371.3" r="0.4"/>
		<circle cx="770.6" cy="372.2" r="0.4"/>
		<circle cx="774.9" cy="372.7" r="0.4"/>
		<circle cx="779.3" cy="372.9" r="0.4"/>
		<circle cx="785.7" cy="372" r="0.4"/>
		<circle cx="783.6" cy="372.5" r="0.4"/>
		<circle cx="789.6" cy="371.3" r="0.4"/>
		<circle cx="787.7" cy="371.7" r="0.4"/>
		<circle cx="791.7" cy="370.6" r="0.4"/>
		<circle cx="768.6" cy="371.8" r="0.4"/>
		<circle cx="772.8" cy="372.5" r="0.4"/>
		<circle cx="777.4" cy="372.9" r="0.4"/>
		<circle cx="781.5" cy="372.9" r="0.4"/>
	</g>
	<g class="st13">
		<circle cx="762.5" cy="371.9" r="0.4"/>
		<circle cx="764.3" cy="372.4" r="0.4"/>
		<circle cx="766.6" cy="373.1" r="0.4"/>
		<circle cx="770.6" cy="374" r="0.4"/>
		<circle cx="774.9" cy="374.5" r="0.4"/>
		<circle cx="779.3" cy="374.7" r="0.4"/>
		<circle cx="785.7" cy="373.8" r="0.4"/>
		<circle cx="783.6" cy="374.3" r="0.4"/>
		<circle cx="789.6" cy="373.1" r="0.4"/>
		<circle cx="787.7" cy="373.4" r="0.4"/>
		<circle cx="791.7" cy="372.4" r="0.4"/>
		<circle cx="768.6" cy="373.6" r="0.4"/>
		<circle cx="772.8" cy="374.3" r="0.4"/>
		<circle cx="777.4" cy="374.7" r="0.4"/>
		<circle cx="781.5" cy="374.7" r="0.4"/>
	</g>
	<g class="st13">
		<circle cx="762.5" cy="373.6" r="0.4"/>
		<circle cx="764.3" cy="374.1" r="0.4"/>
		<circle cx="766.6" cy="374.9" r="0.4"/>
		<circle cx="770.6" cy="375.7" r="0.4"/>
		<circle cx="774.9" cy="376.3" r="0.4"/>
		<circle cx="779.3" cy="376.5" r="0.4"/>
		<circle cx="785.7" cy="375.6" r="0.4"/>
		<circle cx="783.6" cy="376.1" r="0.4"/>
		<circle cx="789.6" cy="374.9" r="0.4"/>
		<circle cx="787.7" cy="375.2" r="0.4"/>
		<circle cx="791.7" cy="374.1" r="0.4"/>
		<circle cx="768.6" cy="375.4" r="0.4"/>
		<circle cx="772.8" cy="376.1" r="0.4"/>
		<circle cx="777.4" cy="376.5" r="0.4"/>
		<circle cx="781.5" cy="376.5" r="0.4"/>
	</g>
	<g class="st13">
		<circle cx="762.5" cy="375.4" r="0.4"/>
		<circle cx="764.3" cy="375.9" r="0.4"/>
		<circle cx="766.6" cy="376.6" r="0.4"/>
		<circle cx="770.6" cy="377.5" r="0.4"/>
		<circle cx="774.9" cy="378" r="0.4"/>
		<circle cx="779.3" cy="378.2" r="0.4"/>
		<circle cx="785.7" cy="377.3" r="0.4"/>
		<circle cx="783.6" cy="377.9" r="0.4"/>
		<circle cx="789.6" cy="376.6" r="0.4"/>
		<circle cx="787.7" cy="377" r="0.4"/>
		<circle cx="791.7" cy="375.9" r="0.4"/>
		<circle cx="768.6" cy="377.1" r="0.4"/>
		<circle cx="772.8" cy="377.9" r="0.4"/>
		<circle cx="777.4" cy="378.2" r="0.4"/>
		<circle cx="781.5" cy="378.2" r="0.4"/>
	</g>
	<g class="st13">
		<circle cx="762.5" cy="377.2" r="0.4"/>
		<circle cx="764.3" cy="377.7" r="0.4"/>
		<circle cx="766.6" cy="378.4" r="0.4"/>
		<circle cx="770.6" cy="379.3" r="0.4"/>
		<circle cx="774.9" cy="379.8" r="0.4"/>
		<circle cx="779.3" cy="380" r="0.4"/>
		<circle cx="785.7" cy="379.1" r="0.4"/>
		<circle cx="783.6" cy="379.6" r="0.4"/>
		<circle cx="789.6" cy="378.4" r="0.4"/>
		<circle cx="787.7" cy="378.8" r="0.4"/>
		<circle cx="791.7" cy="377.7" r="0.4"/>
		<circle cx="768.6" cy="378.9" r="0.4"/>
		<circle cx="772.8" cy="379.6" r="0.4"/>
		<circle cx="777.4" cy="380" r="0.4"/>
		<circle cx="781.5" cy="380" r="0.4"/>
	</g>
	<g class="st13">
		<circle cx="762.5" cy="378.9" r="0.4"/>
		<circle cx="764.3" cy="379.5" r="0.4"/>
		<circle cx="766.6" cy="380.2" r="0.4"/>
		<circle cx="770.6" cy="381.1" r="0.4"/>
		<circle cx="774.9" cy="381.6" r="0.4"/>
		<circle cx="779.3" cy="381.8" r="0.4"/>
		<circle cx="785.7" cy="380.9" r="0.4"/>
		<circle cx="783.6" cy="381.4" r="0.4"/>
		<circle cx="789.6" cy="380.2" r="0.4"/>
		<circle cx="787.7" cy="380.5" r="0.4"/>
		<circle cx="791.7" cy="379.5" r="0.4"/>
		<circle cx="768.6" cy="380.7" r="0.4"/>
		<circle cx="772.8" cy="381.4" r="0.4"/>
		<circle cx="777.4" cy="381.8" r="0.4"/>
		<circle cx="781.5" cy="381.8" r="0.4"/>
	</g>
	<g class="st13">
		<circle cx="762.5" cy="380.7" r="0.4"/>
		<circle cx="764.3" cy="381.2" r="0.4"/>
		<circle cx="766.6" cy="382" r="0.4"/>
		<circle cx="770.6" cy="382.8" r="0.4"/>
		<circle cx="774.9" cy="383.3" r="0.4"/>
		<circle cx="779.3" cy="383.5" r="0.4"/>
		<circle cx="785.7" cy="382.7" r="0.4"/>
		<circle cx="783.6" cy="383.2" r="0.4"/>
		<circle cx="789.6" cy="382" r="0.4"/>
		<circle cx="787.7" cy="382.3" r="0.4"/>
		<circle cx="791.7" cy="381.2" r="0.4"/>
		<circle cx="768.6" cy="382.5" r="0.4"/>
		<circle cx="772.8" cy="383.2" r="0.4"/>
		<circle cx="777.4" cy="383.5" r="0.4"/>
		<circle cx="781.5" cy="383.5" r="0.4"/>
	</g>
	<g class="st13">
		<circle cx="762.5" cy="382.5" r="0.4"/>
		<circle cx="764.3" cy="383" r="0.4"/>
		<circle cx="766.6" cy="383.7" r="0.4"/>
		<circle cx="770.6" cy="384.6" r="0.4"/>
		<circle cx="774.9" cy="385.1" r="0.4"/>
		<circle cx="779.3" cy="385.3" r="0.4"/>
		<circle cx="785.7" cy="384.5" r="0.4"/>
		<circle cx="783.6" cy="385" r="0.4"/>
		<circle cx="789.6" cy="383.7" r="0.4"/>
		<circle cx="787.7" cy="384.1" r="0.4"/>
		<circle cx="791.7" cy="383" r="0.4"/>
		<circle cx="768.6" cy="384.2" r="0.4"/>
		<circle cx="772.8" cy="385" r="0.4"/>
		<circle cx="777.4" cy="385.3" r="0.4"/>
		<circle cx="781.5" cy="385.3" r="0.4"/>
	</g>
	<g class="st13">
		<circle cx="762.5" cy="384.3" r="0.4"/>
		<circle cx="764.3" cy="384.8" r="0.4"/>
		<circle cx="766.6" cy="385.5" r="0.4"/>
		<circle cx="770.6" cy="386.4" r="0.4"/>
		<circle cx="774.9" cy="386.9" r="0.4"/>
		<circle cx="779.3" cy="387.1" r="0.4"/>
		<circle cx="785.7" cy="386.2" r="0.4"/>
		<circle cx="783.6" cy="386.7" r="0.4"/>
		<circle cx="789.6" cy="385.5" r="0.4"/>
		<circle cx="787.7" cy="385.9" r="0.4"/>
		<circle cx="791.7" cy="384.8" r="0.4"/>
		<circle cx="768.6" cy="386" r="0.4"/>
		<circle cx="772.8" cy="386.7" r="0.4"/>
		<circle cx="777.4" cy="387.1" r="0.4"/>
		<circle cx="781.5" cy="387.1" r="0.4"/>
	</g>
	<g class="st13">
		<circle cx="762.5" cy="386" r="0.4"/>
		<circle cx="764.3" cy="386.6" r="0.4"/>
		<circle cx="766.6" cy="387.3" r="0.4"/>
		<circle cx="770.6" cy="388.2" r="0.4"/>
		<circle cx="774.9" cy="388.7" r="0.4"/>
		<circle cx="779.3" cy="388.9" r="0.4"/>
		<circle cx="785.7" cy="388" r="0.4"/>
		<circle cx="783.6" cy="388.5" r="0.4"/>
		<circle cx="789.6" cy="387.3" r="0.4"/>
		<circle cx="787.7" cy="387.6" r="0.4"/>
		<circle cx="791.7" cy="386.6" r="0.4"/>
		<circle cx="768.6" cy="387.8" r="0.4"/>
		<circle cx="772.8" cy="388.5" r="0.4"/>
		<circle cx="777.4" cy="388.9" r="0.4"/>
		<circle cx="781.5" cy="388.9" r="0.4"/>
	</g>
	<g class="st13">
		<circle cx="762.5" cy="387.8" r="0.4"/>
		<circle cx="764.3" cy="388.3" r="0.4"/>
		<circle cx="766.6" cy="389.1" r="0.4"/>
		<circle cx="770.6" cy="389.9" r="0.4"/>
		<circle cx="774.9" cy="390.4" r="0.4"/>
		<circle cx="779.3" cy="390.6" r="0.4"/>
		<circle cx="785.7" cy="389.8" r="0.4"/>
		<circle cx="783.6" cy="390.3" r="0.4"/>
		<circle cx="789.6" cy="389.1" r="0.4"/>
		<circle cx="787.7" cy="389.4" r="0.4"/>
		<circle cx="791.7" cy="388.3" r="0.4"/>
		<circle cx="768.6" cy="389.6" r="0.4"/>
		<circle cx="772.8" cy="390.3" r="0.4"/>
		<circle cx="777.4" cy="390.6" r="0.4"/>
		<circle cx="781.5" cy="390.6" r="0.4"/>
	</g>
	<g class="st13">
		<circle cx="762.5" cy="389.6" r="0.4"/>
		<circle cx="764.3" cy="390.1" r="0.4"/>
		<circle cx="766.6" cy="390.8" r="0.4"/>
		<circle cx="770.6" cy="391.7" r="0.4"/>
		<circle cx="774.9" cy="392.2" r="0.4"/>
		<circle cx="779.3" cy="392.4" r="0.4"/>
		<circle cx="785.7" cy="391.5" r="0.4"/>
		<circle cx="783.6" cy="392.1" r="0.4"/>
		<circle cx="789.6" cy="390.8" r="0.4"/>
		<circle cx="787.7" cy="391.2" r="0.4"/>
		<circle cx="791.7" cy="390.1" r="0.4"/>
		<circle cx="768.6" cy="391.3" r="0.4"/>
		<circle cx="772.8" cy="392.1" r="0.4"/>
		<circle cx="777.4" cy="392.4" r="0.4"/>
		<circle cx="781.5" cy="392.4" r="0.4"/>
	</g>
	<g class="st13">
		<circle cx="762.5" cy="391.4" r="0.4"/>
		<circle cx="764.3" cy="391.9" r="0.4"/>
		<circle cx="766.6" cy="392.6" r="0.4"/>
		<circle cx="770.6" cy="393.5" r="0.4"/>
		<circle cx="774.9" cy="394" r="0.4"/>
		<circle cx="779.3" cy="394.2" r="0.4"/>
		<circle cx="785.7" cy="393.3" r="0.4"/>
		<circle cx="783.6" cy="393.8" r="0.4"/>
		<circle cx="789.6" cy="392.6" r="0.4"/>
		<circle cx="787.7" cy="393" r="0.4"/>
		<circle cx="791.7" cy="391.9" r="0.4"/>
		<circle cx="768.6" cy="393.1" r="0.4"/>
		<circle cx="772.8" cy="393.8" r="0.4"/>
		<circle cx="777.4" cy="394.2" r="0.4"/>
		<circle cx="781.5" cy="394.2" r="0.4"/>
	</g>
	<path class="st2" d="M819.8,271.5c0,0,10.6-4,14.1,4.2l1,0.3l2.2,0.6c5.6-8.4,20.4,0,20.4,0l20.7,9.2l-0.8,1.3l-20.8-7.2
		c0,0-2.7,8.5-6.3,10.6c-3.6,2-9.5-1.1-9.5-1.1c-3.6-1.5-3.9-7.9-3.9-11l-3.1-0.6c-0.2,3.1-1.4,9.1-7,9.7c-7.6,0.9-8.1-5.8-8.1-5.8
		S818.6,273,819.8,271.5z"/>
	<path class="st10" d="M827.4,271.6c-0.3,0.8-0.8,1.9-0.1,2.4c0.3,0.2,0.7,0.2,1.1,0.1c2.2-0.5,3.4-2.9,4.4-5s2.3-4.4,4.6-4.6
		c2.7-0.2,5.5,2.7,7.7,1.2c0.7-0.5,1.1-1.3,1.8-1.6c0.5-0.2,1.1-0.2,1.7-0.1c5.2,0.9,9.2,5.1,9.8,10.3c0.1,1.1,0.3,2.5,1.4,2.7
		c0.4,0,0.8,0,1.2-0.1c2-0.2,3.3,2.1,3.9,4c0.9,2.6,1.8,5.4,1.3,8.2c-0.4,2.2-1.7,4.1-1.7,6.3c-0.1,1.8,0.7,3.5,1.5,5.2
		s2,3.6,3.8,3.3c1.5-0.2,2.3-1.8,3-3.1c0.7-1.3,2-2.7,3.4-2.3c0.6,0.2,1.3,0.7,1.9,0.4c0.3-0.2,0.5-0.6,0.5-0.9
		c0.7-3-0.3-6.5,1.2-9.2c1.1-2.1,3.4-3.3,5.3-4.8c6.6-5.2,7.6-14.8,2.4-21.4c-0.1-0.1-0.2-0.3-0.3-0.4c-2-2.3-4.9-4.4-5.1-7.5
		c-0.1-2.3,1.5-4.5,1.5-6.9c0-2.3-1.5-4.3-3.1-5.9c-4.9-4.5-11.7-6.3-18.2-4.8c-1.7,0.4-3.4,1-5.1,0.8c-2-0.2-3.7-1.5-5.5-2.5
		c-5.9-3-13.9-0.8-17.4,4.7c-2.1,3.2-2.9,7.4-5.9,9.6c-2,1.5-4.9,2-6,4.3c-0.7,1.3-0.5,2.9-0.3,4.4c0.3,2.4,1.5,4.7,3.3,6.3
		C827,266.7,828.6,268.8,827.4,271.6z"/>
	<g class="st14">
		<path d="M882.9,250.4c0.2-0.6,0.4-1.2,0.5-1.8C883.1,249.2,883,249.8,882.9,250.4z"/>
		<path d="M827.8,269.7c0.1-0.4,0.3-0.8,0.4-1.2c1.3-2.8-0.4-4.9-2.2-6.8c-1.8-1.7-3-3.9-3.3-6.3c-0.1-0.7-0.2-1.3-0.2-2
			c-0.2,0.2-0.3,0.4-0.4,0.6c-0.7,1.3-0.5,2.9-0.3,4.4c0.3,2.4,1.5,4.7,3.3,6.3C826.6,266.3,827.8,267.8,827.8,269.7z"/>
		<path d="M876.8,295.4c-1.4-0.4-2.7,1-3.4,2.3s-1.5,2.9-3,3.1c-1.8,0.2-3-1.7-3.8-3.3c-0.7-1.6-1.5-3.4-1.5-5.2
			c0-0.2,0-0.4,0.1-0.6c-0.5,1.2-0.8,2.4-0.9,3.7c-0.1,1.8,0.7,3.5,1.5,5.2s2,3.6,3.8,3.3c1.5-0.2,2.3-1.8,3-3.1s2-2.7,3.4-2.3
			c0.6,0.2,1.3,0.7,1.9,0.4c0.3-0.2,0.5-0.6,0.5-0.9c0.1-0.7,0.2-1.4,0.3-2.1C878.1,296.1,877.5,295.6,876.8,295.4z"/>
		<path d="M885.8,281c-1.9,1.5-4.2,2.6-5.3,4.8c-0.5,0.9-0.7,1.9-0.8,2.9c1.2-2,3.4-3.2,5.3-4.6c2.9-2.3,4.8-5.6,5.5-9.3
			C889.5,277.2,887.9,279.3,885.8,281z"/>
		<path d="M866.2,288.6c0.3-0.9,0.6-1.8,0.8-2.7c0.5-2.7-0.4-5.5-1.3-8.2c-0.6-1.9-1.9-4.3-3.9-4c-0.4,0.1-0.8,0.1-1.2,0.1
			c-1.1-0.2-1.3-1.5-1.4-2.7c-0.7-5.2-4.7-9.4-9.8-10.3c-0.6-0.1-1.2-0.1-1.7,0.1c-0.8,0.3-1.2,1.2-1.8,1.6c-2.2,1.5-5-1.4-7.7-1.2
			c-2.3,0.2-3.7,2.5-4.6,4.6c-1,2.1-2.1,4.5-4.4,5c-0.4,0.1-0.7,0.1-1.1-0.1c-0.2-0.2-0.3-0.4-0.3-0.6c-0.1,0.5-0.2,0.9-0.4,1.3
			c-0.3,0.8-0.8,1.9-0.1,2.4c0.3,0.2,0.7,0.2,1.1,0.1c2.2-0.5,3.4-2.9,4.4-5s2.3-4.4,4.6-4.6c2.7-0.2,5.5,2.7,7.7,1.2
			c0.7-0.5,1.1-1.3,1.8-1.6c0.5-0.2,1.1-0.2,1.7-0.1c5.2,0.9,9.2,5.1,9.8,10.3c0.1,1.1,0.3,2.5,1.4,2.7c0.4,0,0.8,0,1.2-0.1
			c2-0.2,3.3,2.1,3.9,4C865.7,283.3,866.5,286,866.2,288.6z"/>
	</g>
</g>
<g class="st0">
	<path class="st1" d="M88.8,256.1c0,0.7,0,1.4,0.1,2.2c0.3,7.9,1.2,15.7,2.7,23.5c4.4,23,13.7,46.1,24.6,68c0.2,0.3,0.4,0.7,0.5,1
		c0.3,0.5,0.5,1,0.8,1.5c0.5,1.1,1.1,2.1,1.6,3.2l1.2,2.3l0,0c0.3,0.6,0.6,1.1,0.9,1.7c0.2,0.3,0.4,0.7,0.6,1
		c3,5.8,6.3,11.4,9.9,16.8l0.4,0.6c4.5,6.8,9.8,13,15.7,18.6c10.5,9.6,23.8,16.6,38,20.6c0.5,0.1,1,0.3,1.4,0.4
		c0.9,0.2,1.9,0.5,2.8,0.7c0.6,0.2,1.3,0.3,2,0.4c4.5,1,9.1,1.6,13.7,2c2.5,0.2,5,0.3,7.5,0.3h1.1c3.1,0,6.2-0.2,9.2-0.5l0.4-0.1
		c8.3-0.9,16.4-3.1,24.1-6.5c1.2-0.5,2.4-1.1,3.6-1.7l0.6-0.3l0.3-0.2l0,0c3.9-2.1,7.7-4.5,11.3-7.1c4.2-3,8.2-6.3,12-9.7
		c5.7-5,11.2-10.3,16.2-16l0.2-0.3c2.2-2.5,4.3-5,6.2-7.6v0c1.4-1.8,2.7-3.7,4-5.5c0.1-0.1,0.1-0.2,0.2-0.3c1.8-2.8,3.6-5.6,5.1-8.5
		l0.4-0.7c1.1-2.1,2.2-4.3,3.1-6.5c5.3-12.4,7.7-25.9,9-39.4c2.7-27.3,1.1-55.3-6.1-82.6c-1-3.7-2.1-7.4-3.2-11
		c-0.2-0.5-0.3-1-0.5-1.5c-0.3-0.8-0.5-1.5-0.8-2.4c-0.1-0.3-0.2-0.7-0.3-1c-1-3-2.1-5.9-3.3-8.9l-0.6-1.5c-0.7-1.5-1.3-3.2-2-4.7
		c-0.6-1.4-1.3-2.9-2-4.3c-0.1-0.2-0.2-0.5-0.3-0.7c-6-12.2-13.8-24.1-24.9-33.1c-0.8-0.6-1.5-1.2-2.3-1.8c-1.2-0.9-2.4-1.7-3.6-2.5
		l-0.9-0.6l-0.3-0.2l-0.2-0.1l-0.1-0.1c-0.6-0.4-1.3-0.8-1.9-1.1s-1.3-0.7-2-1l0,0h-0.1l-0.3-0.1c-0.5-0.3-1-0.5-1.5-0.8l-0.5-0.2
		l-0.2-0.1l-0.9-0.4c-4-1.7-8.1-2.9-12.3-3.7c-2.3-0.4-4.7-0.7-7.1-0.9c-3.6-0.2-7.2,0-10.8,0.6c-0.5,0.1-1.1,0.2-1.6,0.3
		c-4.5,0.9-8.7,2.8-12.5,5.4c-4.9,3.5-8.3,8.2-11.4,13.1l-0.3,0.5c-0.5,0.8-1,1.7-1.5,2.5c-1.8,2.9-3.6,5.8-5.5,8.6
		c-1.7,2.6-3.6,5.2-5.6,7.7c-2,2.5-4.2,4.9-6.5,7.1c-0.3,0.3-0.7,0.6-1.1,1c-4.3,3.8-9.3,6.9-14.6,8.9c-4.9,1.8-10,2.6-15.1,1.6l0,0
		c-1.4-0.3-2.8-0.7-4.2-1.3c-2.5-1.1-5-2.2-7.4-3.2c-4.3-1.9-8.9-3.2-13.6-3.9l0,0c-4.8-0.6-9.7-0.1-14.3,1.5
		c-0.8,0.3-1.5,0.6-2.3,0.9c-3.4,1.5-6.5,3.6-9.1,6.1c-0.3,0.3-0.6,0.6-0.9,0.9c-6.8,6.9-10.5,16.5-12.5,25.8
		C89.5,238.1,88.6,247.1,88.8,256.1z"/>
	
		<linearGradient id="SVGID_1_" gradientUnits="userSpaceOnUse" x1="-321.96" y1="389.0026" x2="-321.96" y2="713.5779" gradientTransform="matrix(-1 0 0 -1 -61.28 809.9)">
		<stop  offset="0" style="stop-color:#808080;stop-opacity:0.25"/>
		<stop  offset="0.54" style="stop-color:#808080;stop-opacity:0.12"/>
		<stop  offset="1" style="stop-color:#808080;stop-opacity:0.1"/>
	</linearGradient>
	<path class="st15" d="M187.4,415.3l-1.5,1.8c0.5,0.1,1,0.3,1.4,0.4c0.9,0.2,1.9,0.5,2.8,0.7c0.6,0.2,1.3,0.3,2,0.4
		c4.5,1,9.1,1.6,13.7,2c2.5,0.2,5,0.3,7.5,0.3c0.5-0.7,0.9-1.4,1.3-2.2c1-2.4,5-6.6,9.3-10.7c-0.1,0.7-0.1,1.1-0.1,1.1v0.3l0,11
		l0.4-0.1c8.3-0.9,16.4-3.1,24.1-6.5c1.2-0.5,2.4-1.1,3.6-1.7l0.6-0.3l0.3-0.2c0.5-2.7,1-5.2,1.4-7.2l0-0.3c0.1-0.3,0.1-0.5,0.2-0.8
		c0.1-0.2,0.1-0.5,0.1-0.7c0-0.2,0.1-0.3,0.1-0.5c0.3-1.4,0.4-2.2,0.4-2.2c0-0.4,0.1-0.8,0.1-1.3l0,0c0.3-2.4,1.4-4.5,3-6.3
		c0.7-0.7,1.2-1.5,1.4-2.5l0,0c0.9-2.6,0.7-6.1,0.6-7.6c0-0.5-0.1-0.8-0.1-0.8s2.9-1.5,4.7-6.3c0.4-1,0.6-2,0.8-3.1
		c1.3-6.8,5.1-21.1,5.6-22.9l0,0l0-0.2c0,0,0.1-0.2,0.3-0.7c0-0.1,0-0.1,0.1-0.2l0.1-0.2l0,0c1.7-4.8,8.5-24.2,8-37.1
		c-0.6-14.8,0.9-22.5,0.9-22.5l1.7-32.1v-0.3l0.1-1.9v-0.5c0.3,0.2,0.5,0.4,0.7,0.5l0.4,0.4l0.1,0.1c0,0,0-0.1,0-0.4
		c0.3,0.2,0.4,0.4,0.4,0.4s0.8-12.5,0.7-19.5c0-0.8,0-1.6-0.1-2.2c5.2-1.8,13.1-4.7,13.6-6.2c0.4-1.2,3.3-3.9,5.8-6.1l1.4-1.2
		l0.7-0.6c1-0.8,1.7-1.4,1.7-1.4c-0.2,0-0.4-0.1-0.5-0.2c0.3-0.1,0.6-0.3,0.9-0.4c0.8-0.4,1.5-0.9,2.4-1.5c3.7-2.5,8.3-6.3,10.8-10
		c1.4-2.1,2.2-4.2,1.8-5.9c0-0.2-0.1-0.3-0.1-0.5l10.7-15.4l1.2-1.8c0.8-1.1,0.7-2.7-0.3-3.7l0-0.1l-0.1-0.1l-0.5-0.3l0.1,0.1
		c-0.7-0.4-1.5-0.2-2,0.4l-0.2,0.3L321.9,193l-1.8,2.6c-4-1.2-9.9,2.2-14.5,5.7c-1.7,1.3-3.2,2.5-4.4,3.6l-0.8,0.7
		c-0.4-0.8-0.6-1.3-0.6-1.3c-0.2,2.4-8.9,6.1-10.9,7.4c-0.9,0.6-1.9,0.9-3,1c0.3-9.3-6.9-19.1-6.9-19.1L265.1,176l0,0l-0.9-1.1
		l-2.8-3.5c-0.2-1.1-0.3-2.2-0.2-3.3c0-1.8,0.3-3.6,0.8-5.4c0.1-0.3,0.2-0.6,0.3-0.9c0.3-0.8,0.6-1.6,1-2.3c0.1-0.3,0.3-0.6,0.5-0.9
		h0.1c-0.3,1.1-0.6,2.1-0.8,3.2c-0.1,0.3-0.1,0.6-0.2,0.9l0,0.4c0,0.5-0.1,0.9-0.1,1.4c0,0.1,0,0.1,0,0.2c0.1,1.9,1.5,8.6,3.4,8.3
		c0.4,0,0.8-0.2,1-0.5c0.2-0.2,0.4-0.5,0.6-0.8c0.1-0.2,0.2-0.4,0.3-0.6c0.1-0.3,0.2-0.6,0.3-0.9c0.4-1.8,0.6-3.6,0.4-5.4
		c0,0.8-0.1,1.7-0.3,2.5c0.1-2-0.1-4-0.1-5.7c0-0.4,0-0.7,0-1s0-0.7,0-1.1l0,0c0-0.4,0-0.7,0-1.1h0.1h0.1c0,0.3,0,0.6,0,0.9
		c0-0.3,0-0.6,0-0.9h0.1h0.1c1.8-0.3,3.5-0.8,5.1-1.5c2-0.9,3.9-2,5.6-3.4c0.4,0,0.7-0.1,1.1-0.2c1.1-0.2,2-0.8,2.8-1.5l0.2-0.2
		c0.4,1.2,0.1,2.5-0.7,3.5c0,0-0.1,0.1-0.1,0.1h0.1c2.2-0.2,4.1-1.8,5-3.9c0-0.1,0.1-0.1,0.1-0.2c0.8-2.2,1-4.6,0.7-6.9
		c-0.3-2.3-0.5-4.6-0.5-7c0-0.6,0.1-1.1,0.2-1.7c0-0.1,0-0.1,0-0.2c0.1-0.6,0.1-1.3,0-1.9c0,0,0-0.1,0-0.1c0-0.3-0.1-0.7-0.2-1h0.1
		c0.5,0,1-0.3,1.3-0.7l0.1-0.1c0.2-0.2,0.3-0.3,0.4-0.5c0.2-0.2,0.3-0.5,0.4-0.8c0.2-0.6,0.4-1.2,0.5-1.9c0.7-2.6,1-5.3,0.9-8
		c-0.1,0.8-0.2,1.6-0.3,2.4c0.2-3.1-0.2-6.1-2.2-8.3c-1.4-1.5-3.3-2.4-5.2-3.3c-0.7-0.2-1.2-0.7-1.7-1.2c-0.3-0.7-0.5-1.4-0.5-2.1
		c-0.7-4.5-4.9-7.6-9.1-9.4c-5.4-2.3-11.9-3.4-17.1-0.6c-2.5,1.4-4.5,3.5-6.8,5.2c-2.9,2.2-6.2,3.7-9.3,5.6c-3.1,1.9-6,4.3-7.5,7.6
		c-1.5,3.3-1.3,7.1-0.8,10.8c0.2,1.9,0.5,3.8,0.6,5.6c0,0.2,0,0.3,0,0.5c0.2,4.3-0.6,8.5-2.3,12.4c-1.7,4.1-4.5,7.6-8,10.2
		c-0.9,0.5-1.6,1.2-2.3,2c-0.6,0.8-0.7,1.9-0.2,2.8c0.2,0.2,0.4,0.4,0.6,0.6c0.3,0.2,0.5,0.4,0.7,0.6c0.2,0.2,0.3,0.4,0.4,0.7
		c0.2,0.7,0.3,1.5,0.1,2.2c0,0.1,0,0.1,0,0.2l-0.1,0.4c-1,3.9-3.1,7.4-6,10.1c0.1,0.9,1.2,1.3,2.2,1.4l0,0c2.4,0.4,4.9,0.5,7.3,0.5
		h1.1c-0.1,0.3-0.2,0.6-0.3,0.9l0,0c-0.2,0.7-0.5,1.4-0.8,2.2l0,0c-1.1,3.3-2.1,7.3-1.7,10c0.9,5.2,3.6,28.8,2.2,33
		s2.1,34.5,2.1,34.5s0.1,0.5,0.3,1.3c0.2,1,0.6,2.6,1,4.5c0,0.1-0.1,0.2-0.1,0.2c-2.1,4.9-4.4,10.3-5.6,12.5
		c-1.6,2.9-1.6,13.8,1,23.7c1.3,5.1,3.3,10,6.2,13.4c0,0,2.9,4.1,2.7,6.2c0,0.2-0.1,0.3-0.1,0.5c-0.6,1.2-0.3,3.1-0.1,4.2
		c0.1,0.4,0.2,0.7,0.2,0.7v0.8l1.3,28.5c0,3-0.2,6-0.6,8.9c-3.6,4.4-9.1,10.8-11.7,11.9c-4,1.6-33.9,37.9-33.9,37.9s0.2,0.4,0.7,1.1
		L187.4,415.3z"/>
	<path class="st16" d="M307,219.2c-0.9,0.5-1.8,0.9-2.9,1.1c-3.7,0.1-6.8-10-6.8-10s1.1-1.1,2.8-2.6c5-4.5,15.5-12.7,20.4-8.1
		C326,204.8,313.4,215.7,307,219.2z"/>
	<path class="st16" d="M192,418.6c4.5,1,9.1,1.6,13.7,2c-2-3.5-14.7-7.6-14.7-7.6l-1.7,2l-0.8,1l-1.3,1.5c0.9,0.2,1.9,0.5,2.8,0.7
		C190.7,418.3,191.3,418.5,192,418.6z"/>
	<path class="st3" d="M307,219.2c-0.9,0.5-1.8,0.9-2.9,1.1c-3.7,0.1-6.8-10-6.8-10s1.1-1.1,2.8-2.6
		C301.3,210.5,304.6,217.8,307,219.2z"/>
	<path class="st17" d="M283,215.6c0,0,3.1,0.2,5.1-1.1c2-1.3,10.4-4.9,10.7-7.4c0,0,5.1,12.3,7.9,12.7c0,0-8.8,6.9-9.4,9.1
		c-0.7,2.2-17.8,7.6-17.8,7.6L283,215.6z"/>
	<path class="st18" d="M283,215.6c0,0,3.1,0.2,5.1-1.1c2-1.3,10.4-4.9,10.7-7.4c0,0,5.1,12.3,7.9,12.7c0,0-8.8,6.9-9.4,9.1
		c-0.7,2.2-17.8,7.6-17.8,7.6L283,215.6z"/>
	<path class="st3" d="M188.5,416c0.4,0.6,0.9,1.3,1.5,2.2c0.6,0.2,1.3,0.3,2,0.4c4.5,1,9.1,1.6,13.7,2c-2-3.5-14.7-7.6-14.7-7.6
		l-1.7,2L188.5,416z"/>
	<path class="st18" d="M188.6,413.9c0,0,0.2,0.4,0.7,1.1c0.8,1.2,1.7,2.4,2.7,3.6c4.5,1,9.1,1.6,13.7,2c2.5,0.2,5,0.3,7.5,0.3h1.1
		c0.3-0.5,0.6-1,0.8-1.5c1-2.3,4.6-6.2,8.5-10c0.2-0.2,0.4-0.4,0.6-0.6c5.6-5.5,11.7-10.6,11.7-10.6l0.6-37.6c0,0-1.3,1.8-3.2,4.2
		c-3.5,4.4-8.9,10.7-11.4,11.8C217.9,378.1,188.6,413.9,188.6,413.9z"/>
	<path class="st3" d="M188.6,413.9c0,0,0.2,0.4,0.7,1.1c0.8,1.2,1.7,2.4,2.7,3.6c4.5,1,9.1,1.6,13.7,2c2.5,0.2,5,0.3,7.5,0.3h1.1
		c0.3-0.5,0.6-1,0.8-1.5c1-2.3,4.6-6.2,8.5-10c0.2-0.2,0.4-0.4,0.6-0.6c5.6-5.5,11.7-10.6,11.7-10.6l0.6-37.6c0,0-1.3,1.8-3.2,4.2
		c-3.5,4.4-8.9,10.7-11.4,11.8C217.9,378.1,188.6,413.9,188.6,413.9z"/>
	<path class="st3" d="M204,408.5c3.3,0.3,6.5,0.3,9.8,0C219.6,408,215.2,411.5,204,408.5z"/>
	<path class="st3" d="M201.3,412.3c0,0,7.7,4.4,10.7,2.2S209.1,416.6,201.3,412.3z"/>
	<path class="st18" d="M232.3,319.8c0.3,0.7,0.3,1.4,0.1,2.1c-0.3,0.8-0.4,1.7-0.3,2.5c0,0.5,0.1,1,0.2,1.5c0.1,0.5,0.2,0.9,0.2,0.9
		l1.3,29c0,3-0.2,5.9-0.6,8.9c-0.4,3.1-1.1,6.3-2.3,8.1c-2.6,4-6,30.3-6.8,36l-0.1,1.1l0,10.5c8.3-0.9,16.4-3.1,24.1-6.5
		c1.2-0.5,2.4-1.1,3.6-1.7l0.6-0.3l0.3-0.2l0,0c0.5-2.7,1-5.3,1.4-7.2l0-0.3c0.1-0.3,0.1-0.5,0.2-0.8c0-0.2,0.1-0.5,0.1-0.7
		c0-0.2,0.1-0.3,0.1-0.5c0.2-0.9,0.2-1.4,0.2-1.4c0-0.7,0.1-1.4,0.3-2.1l0,0c0.4-2,1.3-3.8,2.8-5.3c0.9-1,1.5-2.1,1.7-3.4l0,0
		c0.4-2.4,0.5-4.9,0.2-7.4c0.1-0.1,0.3-0.2,0.4-0.3c0.9-0.6,3.3-2.7,4.6-7.2c0.2-0.6,0.3-1.3,0.5-2c1.3-7.2,5.6-22.8,5.6-22.8
		s0.2-0.4,0.4-1.2l0,0c0.1-0.3,0.2-0.6,0.3-0.9c0-0.1,0-0.1,0.1-0.2l0.1-0.2l0,0c2.2-6.3,7.8-23.6,7.3-35.3
		c-0.6-14.6,0.9-22.3,0.9-22.3l1.8-34v-0.5v-0.3l0.2-3.2l-16.9-0.5h-1l-4-0.1h-0.1h-0.4l-5.4-0.2l-2.4-0.1l-4.4-0.1h-0.7h-0.9
		l-3.4-0.1l-9.8,5.7c0,0-0.4,1-1,2.5c-0.1,0.3-0.3,0.7-0.5,1.1s-0.3,0.8-0.5,1.3L229,265c-0.2,0.4-0.3,0.8-0.5,1.2
		c-2.1,4.9-4.4,10.4-5.6,12.6c-1.5,2.7-1.5,12.4,0.5,21.6c1.3,5.7,3.4,11.3,6.5,15.1C230.8,316.8,231.7,318.3,232.3,319.8z"/>
	<path class="st3" d="M243.3,398c0,0,6,4.7,8.5,4.7S243.3,398,243.3,398z"/>
	<path class="st16" d="M279.4,199.8v9.7l-6.4-2.8l-6.4-2.7l-13.8-13.6c0,0-11-7.1-16.8-13.6c-3.3-3.7-5-7.2-2.1-9
		c1.4-0.9,2.7-2.1,3.8-3.4c2.9-3.5,5.5-7.2,7.6-11.3c0.1-0.2,0.2-0.3,0.3-0.5c2.9-5.2,4.7-9.7,4.7-9.7s8,2.6,13.2,6.2
		c0.4,0.3,0.8,0.6,1.2,0.9c2.9,2.4,4.3,5.1,1.7,7.8c-0.7,0.7-1.3,1.5-1.9,2.3l0,0c-0.4,0.6-0.8,1.2-1.2,1.8
		c-0.2,0.3-0.3,0.6-0.4,0.9c-1.8,3.6-2.4,7.7-1.8,11.7L279.4,199.8z"/>
	<path class="st10" d="M278.2,130.8c0.3,0.6,0.8,1.1,1.1,1.7c0.6,1.2,0.5,2.7,0.5,4.1c-0.2,2.2,0,4.4,0.4,6.5
		c0.5,1.9,1.3,3.8,1.4,5.8c0.1,2.8-1.4,5.4-2.8,7.8c1.5,0,3-0.7,4-1.9c0.4,1.3,0.1,2.6-0.8,3.6c2.3-0.1,4.3-1.9,5.1-4
		c0.8-2.2,1-4.5,0.7-6.8c-0.3-2.3-0.5-4.6-0.5-6.9c0.2-1.2,0.2-2.5,0.2-3.7c-0.2-2.5-1.7-4.6-3.2-6.7l-3-4.1
		c-0.2-0.3-0.5-0.6-0.8-0.8C277.8,124.2,277.5,129.4,278.2,130.8z"/>
	<path class="st3" d="M266.5,157.8c-0.7,0.7-1.3,1.5-1.9,2.3l0,0c-0.4,0.6-0.8,1.2-1.2,1.8c-0.2,0.3-0.3,0.6-0.4,0.9
		c-3.9-0.2-7.7-1.4-11-3.5c-2.4-1.5-4.6-3.5-6.3-5.9c-0.1-0.1-0.2-0.3-0.3-0.4c0.1-0.2,0.2-0.3,0.3-0.5c2.9-5.2,4.7-9.7,4.7-9.7
		s8,2.6,13.2,6.2c0.4,0.3,0.8,0.6,1.2,0.9C267.7,152.3,269.1,155.1,266.5,157.8z"/>
	<path class="st16" d="M287.3,138.9c0,11.1-7.9,20.7-18.9,22.7c-1.4,0.2-2.8,0.4-4.2,0.4h-0.1c-0.2,0-0.5,0-0.8,0
		c-4-0.1-8-1.3-11.4-3.5c-2.4-1.5-4.6-3.5-6.3-5.8c-7.5-10.3-5.3-24.7,5-32.2c10.3-7.5,24.7-5.3,32.2,5
		C285.7,129.3,287.3,134,287.3,138.9z"/>
	<path class="st3" d="M267.3,195.9c0,0,11.6,6.6,8.6,1l-15.2-22.4l0,0l17.2,22.1c0,0,11,15.1,5,25.5c0,0-0.9,8.6,0.1,10.7
		c1,2-0.3,23.9-0.3,23.9s-4.1-3.8-6.3-3.1c-2.2,0.7-17.7,2-17.7,2L267.3,195.9z"/>
	<path class="st3" d="M281.8,252.1l-0.2,4.1c-1.4-1-3.3-2.1-4.6-1.7c-2.2,0.7-17.7,2.1-17.7,2.1l0.7-5L281.8,252.1z"/>
	<path class="st10" d="M267.7,195.9c0,0,11.6,6.6,8.6,1l-15.2-22.4l0,0l17.2,22.1c0,0,11,15.1,5,25.5c0,0-0.9,8.6,0.1,10.7
		c1,2-0.3,23.9-0.3,23.9s-4.1-3.8-6.3-3.1c-2.2,0.7-17.7,2-17.7,2L267.7,195.9z"/>
	<path class="st3" d="M273.9,207.1c-0.7,7-3.6,15.4-3.6,15.4s-2,20.8-4.6,27c-2.6,6.2-1.5,14.6-2.9,30.3c-0.5,5.6-2.3,9.5-4.8,12.1
		c-4,4.3-9.8,5.2-14.3,4.9c-0.4,0-0.7,0-1.1-0.1c-7.3-0.8-14.4-36-14.4-36s-3.4-30-2-34.1c1.3-4.1-1.3-27.5-2.2-32.7
		c-0.6-3.2,1.1-8.6,2.4-12c0.8-2,1.4-3.4,1.4-3.4s2.5-7.9,6.6-12c1.1-1.2,2.7-1.8,4.3-1.8c1.9,0.1,3.8,0.7,5.4,1.7l0.2,0.1
		c0,0,26.7,27.2,29.1,33.5C274.1,201.9,274.2,204.4,273.9,207.1z"/>
	<path class="st18" d="M273,206.7c-0.7,7-3.6,15.4-3.6,15.4s-2,20.8-4.7,27s-1.5,14.6-2.9,30.3c-0.5,5.6-2.3,9.5-4.8,12.1
		c-4,4.3-9.8,5.2-14.3,4.9l-1.1-0.1c-7.3-0.7-14.4-36-14.4-36s-3.4-30-2-34.1s-1.3-27.5-2.2-32.7c-0.6-3.2,1.1-8.6,2.4-12
		c0.8-2,1.4-3.4,1.4-3.4s2.5-7.9,6.6-12c1.1-1.2,2.7-1.8,4.3-1.8c1.9,0.1,3.8,0.7,5.4,1.7l0.2,0.1c0,0,26.7,27.2,29.1,33.5
		C273.2,201.4,273.3,204,273,206.7z"/>
	<path class="st3" d="M243.2,313.9c0,0-6,5.4-8.1,5.2C233,318.8,243.2,313.9,243.2,313.9z"/>
	<path class="st3" d="M244.8,319c0,0-6.4,3-8.3,3.4C234.6,322.9,242.3,318.3,244.8,319z"/>
	<path class="st3" d="M269.4,238.2c0,0,9.4,0.1,10.9,3.1C281.7,244.3,272.5,237,269.4,238.2z"/>
	<path class="st3" d="M268.1,243.4c0,0,7.3,1.5,9.4,3.3C279.7,248.4,268.1,243.4,268.1,243.4z"/>
	<path class="st3" d="M255.9,225.5c0,0-0.9,29.8-4.1,33.6C248.5,262.9,255.9,225.5,255.9,225.5z"/>
	<path class="st3" d="M247.8,309.6c0,0-6,26.3,6.1,27.9c12.1,1.6,8.4-29.9,8.4-29.9L247.8,309.6z"/>
	<path class="st16" d="M247.3,309.1c0,0-6,26.3,6.1,27.9c12.1,1.6,8.4-29.9,8.4-29.9L247.3,309.1z"/>
	<path class="st3" d="M287.2,136.3c-0.3-0.5-0.6-1-0.9-1.6c-1.6-3.4-5.8-1.7-8.8-0.1l-1.6,2.1c-0.7,0.9-1.4,1.8-1.9,2.9
		c-0.3,0.8-0.6,1.7-0.8,2.6c-0.4,1.5-1,2.9-1.6,4.4c-1.8,4.8-2.9,9.9-3.3,15.1c-1.4,0.2-2.8,0.4-4.2,0.4h-0.1v-0.1
		c0.2-0.6,0.3-1.2,0.4-1.8l0,0c0.6-3.3,0.7-6.7,0.2-10c0-0.1,0-0.1,0-0.2c-0.1-0.8-0.3-1.5-0.3-2.2c-0.3,0.5-0.5,1-0.8,1.5
		c-1.8,3.4-3.8,6.8-7.2,8.3c-1.4,0.5-2.9,0.9-4.4,1c-1.9,0.1-3.7,0.4-5.5,0.9c-0.6,0.2-1.2,0.5-1.6,1c-0.5,0.7-0.7,1.5-0.8,2.4
		c-0.2,1.1-0.5,2.3-0.9,3.3c-1.6,4-4,7.7-7.1,10.7l-0.8,0.8c-1.4,1.4-3,2.5-4.7,3.3c-1.6,0.6-3.3,0.8-5,0.8c0.8-2,1.4-3.4,1.4-3.4
		s2.5-7.9,6.6-12c1.1-1.2,2.7-1.8,4.3-1.8c3-3.6,5.7-7.6,7.9-11.8c-7.6-10.2-5.4-24.7,4.8-32.3s24.7-5.4,32.3,4.8
		C285.2,128.4,286.7,132.3,287.2,136.3L287.2,136.3z"/>
	<path class="st10" d="M288.6,118.3c-1.4-1.5-3.3-2.4-5.1-3.3c-0.7-0.2-1.2-0.7-1.7-1.2c-0.3-0.7-0.5-1.4-0.5-2.1
		c-0.6-4.5-4.8-7.5-8.9-9.4c-5.3-2.3-11.7-3.3-16.8-0.6c-2.5,1.3-4.4,3.5-6.7,5.2c-2.8,2.2-6.1,3.7-9.1,5.6c-3,1.9-5.9,4.3-7.3,7.6
		c-2.2,5-0.6,10.8-0.3,16.3c0.4,8.7-3.1,17.7-10.1,22.9c-0.8,0.5-1.6,1.2-2.2,1.9c-0.6,0.8-0.7,1.9-0.2,2.8c0.3,0.5,0.9,0.8,1.3,1.2
		c0.8,0.9,0.6,2.3,0.3,3.5c-1,3.8-3,7.3-5.9,10c0.1,0.9,1.2,1.3,2.1,1.4c2.4,0.3,4.8,0.5,7.2,0.5c3.8,0.3,7.5-1.2,10-4
		c4.3-4,7.9-9,8.8-14.8c0-0.9,0.3-1.7,0.8-2.4c0.4-0.5,1-0.8,1.6-1c3.2-1.1,6.8-0.6,9.9-1.9c4-1.7,6-6,8.1-9.9
		c0.1,0.8,0.2,1.5,0.3,2.2c0.6,4,0.4,8.1-0.6,12.1c-0.6,2.2-1.4,4.4-1.3,6.7c0,1.7,1.8,10.6,4.1,8c2.3-2.7,1.4-8.6,1.4-11.9
		c0-6.2,1.1-12.4,3.4-18.1c0.5-1.4,1.2-2.9,1.6-4.4c0.2-0.9,0.5-1.7,0.8-2.6c0.5-1,1.1-2,1.9-2.9l1.6-2.1c3-1.6,7.2-3.3,8.8,0.1
		c0.6,1.3,1,2.7,2.6,1.5c1-0.8,1.3-2.2,1.5-3.3C291,127.3,291.8,121.9,288.6,118.3z"/>
	<path class="st3" d="M257.7,199c-0.6-15.8-22.7-19-27.8-4.1c0,0.1-0.1,0.2-0.1,0.3c-3.4,10.1-1.9,35.7-1.9,35.7s0.4,17.2,2.1,22.9
		c1.6,5.7,6.1,22.1,6.1,24.7c0,2.6,4.2,12.7,6,13.5c1.8,0.7,2.7,6.4,3.1,7.5c0.4,1,1.7,14.4,1.7,14.4s16.5-1,16.8-3.7
		c0.3-2.6-3.7-15.5-3.7-15.5s-2.9-5.3-3.3-9.5c-0.4-4.3-2.7-6.2-2.3-9.1s-1.3-4.4-1.3-6.3c0-1.9-1.3-7-1.3-7s-2.8-2.2-2.3-4.8
		c0.5-2.6-3.9-7.9-2.8-9.8c1.2-1.9,1.5-6.6,1.5-6.6s1.5-21.1,2.5-26.8c1-5.7,7-14.9,7-14.9S257.7,199.4,257.7,199z"/>
	<path class="st3" d="M257,291.5c-4,4.3-9.8,5.2-14.3,4.9c-0.5-2-1.3-4.5-2.4-4.9c-1.8-0.7-6-10.8-6-13.5s-4.5-19-6.2-24.7
		s-2-22.9-2-22.9s-1.5-25.6,1.9-35.7c0-0.1,0.1-0.2,0.1-0.3c5.2-14.9,27.2-11.7,27.8,4.1c0,0.5,0,0.7,0,0.7s-6,9.2-7,14.9
		c-1,5.7-2.5,26.8-2.5,26.8s-0.3,4.7-1.5,6.6c-1.2,1.9,3.2,7.2,2.8,9.8c-0.4,2.6,2.3,4.8,2.3,4.8s1.3,5.1,1.3,7
		c0,1.9,1.8,3.4,1.3,6.3c-0.4,2.9,1.9,4.8,2.3,9.1C255.3,287,256,289.3,257,291.5z"/>
	<path class="st18" d="M256.8,198.5c-0.6-15.8-22.7-19-27.8-4.1c0,0.1-0.1,0.2-0.1,0.3c-3.4,10.1-1.9,35.7-1.9,35.7s0.4,17.2,2,22.9
		c1.6,5.7,6.2,22.1,6.2,24.7c0,2.6,4.2,12.7,6,13.5s2.7,6.4,3.1,7.5c0.4,1,1.8,14.4,1.8,14.4s16.5-1,16.8-3.7
		c0.3-2.6-3.7-15.5-3.7-15.5s-2.9-5.3-3.3-9.5c-0.4-4.3-2.7-6.1-2.3-9.1c0.4-2.9-1.3-4.4-1.3-6.3s-1.3-7-1.3-7s-2.8-2.2-2.3-4.8
		c0.5-2.6-4-7.9-2.8-9.8c1.2-1.9,1.5-6.6,1.5-6.6s1.5-21.1,2.5-26.8c1-5.7,7-14.9,7-14.9S256.9,199,256.8,198.5z"/>
	<path class="st3" d="M229.7,239.1c0.4-0.4,8.8-9.7,11.4-6.4C243.7,236,229.7,239.1,229.7,239.1z"/>
	<path class="st3" d="M230.4,246.2c0.3-0.3,8.3-0.7,10.3-5.2C242.7,236.5,230.4,246.2,230.4,246.2z"/>
	<g class="st14">
		<path d="M221.3,165.2c0.2,0.2,0.3,0.5,0.4,0.8c0.3-1,0.2-2.1-0.4-3c-0.4-0.4-1-0.7-1.3-1.2l-0.1-0.1c-0.4,0.7-0.4,1.6,0.1,2.3
			C220.3,164.5,220.9,164.8,221.3,165.2z"/>
		<path d="M232.5,136.8c0-0.8,0-1.7,0-2.5c-0.2-3-0.7-6.1-0.8-9.1c-0.2,3.7,0.6,7.5,0.8,11.2C232.5,136.6,232.5,136.7,232.5,136.8z"
			/>
		<path d="M266.7,173.4c-2,2.4-3.6-4.5-4-7.2c-0.1,0.5-0.1,0.9-0.1,1.4c0,1.7,1.8,10.6,4.1,8c1.5-1.8,1.7-4.9,1.6-7.7
			C268.2,170,267.8,172.1,266.7,173.4z"/>
		<path d="M264.6,148.9c0.2,1.2,0.3,2.3,0.3,3.5c0.1-1.9,0-3.8-0.3-5.7c-0.1-0.8-0.3-1.5-0.3-2.2c-2.1,3.9-4.1,8.2-8.1,9.9
			c-3.1,1.3-6.7,0.8-9.9,1.9c-0.6,0.2-1.2,0.5-1.6,1c-0.5,0.7-0.7,1.6-0.8,2.4c-1,5.8-4.6,10.8-8.9,14.8c-2.5,2.9-6.2,4.4-10,4
			c-2.4,0-4.8-0.2-7.2-0.5c-0.4-0.1-0.7-0.1-1.1-0.3c-0.3,0.4-0.7,0.8-1,1.1c0.1,0.9,1.2,1.3,2.1,1.4c2.4,0.3,4.8,0.5,7.2,0.5
			c3.8,0.3,7.5-1.2,10-4c4.3-4,7.9-9,8.9-14.8c0-0.9,0.3-1.7,0.8-2.4c0.4-0.5,1-0.8,1.6-1c3.2-1.1,6.8-0.6,9.9-1.9
			c4-1.7,6-6,8.1-9.9C264.3,147.4,264.5,148.1,264.6,148.9z"/>
		<path d="M290.2,129.8c-0.2,1.1-0.6,2.6-1.5,3.3c-1.6,1.3-1.9-0.2-2.6-1.5c-1.6-3.4-5.8-1.7-8.8-0.1l-1.6,2.1
			c-0.7,0.9-1.4,1.8-1.9,2.9c-0.3,0.8-0.6,1.7-0.8,2.6c-0.4,1.5-1,2.9-1.6,4.4c-2.2,5.8-3.4,11.9-3.4,18.1c0,0.3,0,0.6,0,0.9
			c0.2-5.8,1.3-11.5,3.3-16.9c0.6-1.4,1.2-2.9,1.6-4.4c0.2-0.9,0.5-1.7,0.8-2.6c0.5-1,1.1-2,1.9-2.9l1.6-2.1c3-1.6,7.2-3.3,8.8,0.1
			c0.6,1.3,1,2.7,2.6,1.5c1-0.8,1.3-2.2,1.5-3.3c0.7-2.6,1-5.2,0.9-7.9C290.9,126,290.6,127.9,290.2,129.8z"/>
	</g>
	<path class="st10" d="M310.2,212.9l0.5,0.3c-0.8-0.6-1-1.7-0.5-2.5c0,0,0,0,0,0l20.4-29.6c0.6-0.8,1.7-1,2.5-0.5l-0.4-0.3
		c1.3,0.9,1.7,2.7,0.8,4c0,0,0,0,0,0l-19.1,27.7C313.3,213.5,311.5,213.8,310.2,212.9C310.2,212.9,310.2,212.9,310.2,212.9z"/>
	<path class="st19" d="M332.7,180.4l0.5,0.3l0,0l-22.4,32.5l0,0l-0.5-0.3c-0.6-0.4-0.8-1.3-0.3-1.9l20.9-30.3
		C331.2,180.2,332.1,180,332.7,180.4z"/>
	<path class="st10" d="M330.2,184.9L330.2,184.9c0.1,0.1,0.2,0.2,0.1,0.2l-1.7,2.4c0,0.1-0.1,0.1-0.2,0l-0.1-0.1
		c-0.1,0-0.1-0.1,0-0.2l1.7-2.4C330.1,184.9,330.1,184.9,330.2,184.9z"/>
</g>
<linearGradient id="SVGID_2_" gradientUnits="userSpaceOnUse" x1="479.0329" y1="55.3196" x2="479.0329" y2="485.3687" gradientTransform="matrix(1 0 0 -1 -39.48 809.9)">
	<stop  offset="0" style="stop-color:#808080;stop-opacity:0.25"/>
	<stop  offset="0.54" style="stop-color:#808080;stop-opacity:0.12"/>
	<stop  offset="1" style="stop-color:#808080;stop-opacity:0.1"/>
</linearGradient>
<path class="st20" d="M718.2,683.4l-6.2-19.7c0,0-5.2-14-4.3-21.5c0.8-7.5-1.7-15.7-1.7-15.7l5.1-26.5c0,0,0.3-2.9,0.3-6.7
	c0-6.3-0.9-15.2-5.3-17.5c-7-3.7-21.4-35-24.4-35s-12.7-2-12.7-5.4c0-0.1,0-0.2,0-0.4c0,0,0-0.1,0-0.1c0,0,0-0.2-0.1-0.3l0-0.1
	l-0.1-0.3l0-0.1c-0.4-0.7-0.8-1.3-1.4-1.8c13.1-2.5,26.1-5.2,39.1-8.4h-0.5l0.5-0.1c-1.7,0-3.4-0.1-5.1-0.4l-0.4,0.1
	c-19-2.6-36.1-17.5-40.8-36.3c-5.2-20.9,3.9-42.7,3.5-64.2c-0.3-13.6-4.3-26.9-11.7-38.3c-1-1.5-2-3-3.1-4.5
	c14.6-7.1,20.7-24.7,13.6-39.3c-0.7-1.4-1.4-2.7-2.3-3.9c-0.3-0.5-0.7-0.9-1-1.4c7.1,11.8,5.1,26.9-4.8,36.4
	c7.8-14.1,2.6-31.9-11.5-39.7c-14.1-7.8-31.9-2.6-39.7,11.5c-0.1,0.2-0.2,0.3-0.3,0.5c-0.6-0.3-1.3-0.6-1.9-0.8
	c4-10.9,14-18.4,25.6-19.1c-0.6,0-1.2-0.1-1.7-0.1c-11.8,0-22.4,7.1-26.9,18c-8.8-3.2-17.9-4.5-26.9-2.3c-1.7,0.4-3.3,1-4.9,1.7
	l0.4-0.3c-2.2,0.9-4.3,2.2-6.1,3.9c-2.7,2.5-4.6,5.7-6.9,8.6c-2.3,2.9-5.1,5.4-8.2,7.4c0.3-0.1,0.5-0.3,0.8-0.4
	c-10.4,7.3-24.4,9.4-36.3,4.7c-3.3-1.3-6.5-3.1-10-3.6c-2.7-0.3-5.5,0.1-8,1.2c0.1-0.1,0.2-0.2,0.3-0.3c-3.3,1.3-6.1,3.5-8.3,6.3
	c-3.9,4.8-5.8,10.8-7.2,16.8c-1,4.2-1.5,8.6-1.5,12.9c0.1,5.6,1.3,11,4.6,15.3c5.2,6.7,12.2,8.5,19.6,9.7c-0.2,0.8-0.4,1.5-0.6,2.2
	c-8.8,34.7,11.5,70.1,45.9,80.1l1.4,2.4l0.5,0.1c3.4,5.8,7.2,12.3,10.7,18.6c0.2,0.3,0.4,0.7,0.5,1l-6.6,3.4l0,0
	c-1.7,0.9-6,3.2-8.4,5.5c-0.7,0.6-1.2,1.3-1.5,2.2c-1,3.4-6.4,12.1-10,14.5c-3.7,2.3-6.7,13.8-6.4,19.8s-2,5.4-8,5.7
	c-6,0.3,0,9.1,0,9.1l0.2,0.6c-0.3,0.5-0.6,1-0.9,1.5c-1.5,2.4-3.6,5-5.1,4.9c-2.7-0.3-4.4,6.3-4.2,7.3s-4.7,9.1-6.5,9.9
	c-1.8,0.8-9.7,2.5-7.5,10l-9.5,9.7l-7.7,7.4c0,0-11-6.2-28.9,13.1c2-0.2,4,0,5.9,0.6l-0.5,0.2c-4.7,2.2-12.9,6-18.9,8.5l-32.1,1v-24
	c0,0-2.8-6.7-6.2,0l-0.8,24.2l-69.9,2.3l13.1-13.9l0,0l0.2-0.2c2.9-3,3.8-7.4,2.6-11.3L285,468.8l0,0l-0.4-1.2
	c-1.1-3.5-4.1-6-7.7-6.5L201,450.9l-0.5-0.1l-7,1.9c-3.6,1-5.8,4.8-4.8,8.4c0,0,0,0.1,0,0.1c1.8,6.2,4.7,16.3,8.5,29h-10.5l8,69.3
	l4.9,26.7c1.3,6.8,2.7,13.6,4.4,20.3c4,16.2,12,50.9,12.2,70.9l-58.7,64v13h375.2c0,0,0,0.1,0.1,0.1h182.8c0,0-2-3.5,2.3-8.6
	s2.2-25.1,2.2-25.1s-2.4-3.2,0.5-10.3C723.7,703.6,718.2,683.4,718.2,683.4z M251.9,668.3l-10,0.3l-9.3-60.3
	C239.5,630.3,246.2,651.3,251.9,668.3z M508.7,705l-6.5-13.2c1.5,0.1,2.9-0.3,4.2-1.1c4.2-3,6.7-10.1,6.7-10.1l11.2-13.3l0.9-1.1
	c2.3,6.3,4.9,11.4,7.1,13.8c5.3,6.1,6,23.6,7.7,29.9c1.6,6.4,0.4,3.7,0,7.4c-0.1,0.9,0,1.8,0.2,2.7C532.8,712,522.3,704.8,508.7,705
	z"/>
<polygon class="st21" points="161.3,741.7 227.3,670.2 489.3,661.8 535.1,754.6 161.3,754.6 "/>
<polygon class="st8" points="161.3,741.7 227.3,670.2 489.3,661.8 535.1,754.6 161.3,754.6 "/>
<path class="st21" d="M502.7,735.7v2.5c0,2.7-2.2,4.8-4.8,4.8H357c-2.7,0,0-5.3,0-5.3l-1.6-34.9c-0.1-2.7,1.7-5.2,4.3-5.8
	c7.8-2,13.2,1.2,13.2,1.2l87.3-2.2c1.8-0.1,3.6,0,5.4,0.3c6.4,0.8,12.2,4.3,16,9.5l20.1,27.2C502.3,733.7,502.6,734.7,502.7,735.7z"
	/>
<path class="st3" d="M502.7,738.2L502.7,738.2c0,2.7-2.2,4.8-4.8,4.8H357c-2.7,0,0-5.3,0-5.3s7.8-3.8,19.3-3.1l102.8-2.2
	c0,0,12.1,0.3,19.2,1.1C500.8,733.7,502.6,735.8,502.7,738.2z"/>
<polygon class="st6" points="462.7,701.9 374.3,701.9 376.7,728.8 479.1,727 "/>
<path class="st21" d="M312.8,720.8v9.3l-92.6,3.8c0,0-21.2-1.4-23.8-14.5c-0.2-1.4-0.2-2.7,0.1-4.1c0.9-5.5,5.6-15,26.4-19.5
	l25.5-2.6h56.9C305.2,693.3,312.6,700.6,312.8,720.8z"/>
<path class="st3" d="M312.8,721.1v9l-92.6,3.8c0,0-21.2-1.4-23.8-14.5c-0.2-1.4-0.2-2.7,0.1-4.1c0,0,12.8,12.1,30.1,10.3l81.5-3.5
	C309.7,721.9,311.3,721.5,312.8,721.1z"/>
<ellipse transform="matrix(0.9987 -5.146449e-02 5.146449e-02 0.9987 -36.0572 13.3757)" class="st3" cx="241.7" cy="706.8" rx="28.5" ry="4.9"/>
<path class="st21" d="M250.7,704.5l-15,7.4l-15.9-3.8l-0.1-26c1-19-7.7-56.9-12.1-74.1c-1.7-6.6-3.1-13.3-4.4-20.1l-4.9-26.4
	l-8-68.6h19l11.2,16L250.7,704.5z"/>
<path class="st21" d="M250.7,704.5l-15,7.4l-9.6-55.5c0.2-9.5-11.7-54.3-12.4-56.2c-9.4-22.5-17.5-107.3-17.5-107.3h13.2l11.2,16
	L250.7,704.5z"/>
<path class="st22" d="M250.7,704.5l-15,7.4l-9.6-55.5c0.2-9.5-11.7-54.3-12.4-56.2c-9.4-22.5-17.5-107.3-17.5-107.3h13.2l11.2,16
	L250.7,704.5z"/>
<path class="st21" d="M340,653.1l-51,53.8l-6,0.4l-7.3,0.5c-3.5,0.2-6.7-1.7-8.1-4.9c-15.5-34.8-64.9-203-75.3-238.6
	c-1-3.6,1-7.3,4.6-8.4c0.1,0,0.1,0,0.2,0l7-1.9l0.5,0.1l74.3,10c4.3,0.6,7.9,3.6,9.3,7.8l54.4,170
	C343.8,645.8,342.9,650.1,340,653.1z"/>
<path class="st3" d="M340,653.1l-51,53.8l-6,0.4l-7.3,0.5c-3.5,0.2-6.7-1.7-8.1-4.9c-15.5-34.8-64.9-203-75.3-238.6
	c-1-3.6,1-7.3,4.6-8.4c0.1,0,0.1,0,0.2,0l7-1.9l0.5,0.1l74.3,10c4.3,0.6,7.9,3.6,9.3,7.8l54.4,170
	C343.8,645.8,342.9,650.1,340,653.1z"/>
<path class="st21" d="M339.9,653.3L289,706.9l-6,0.4L206.8,463c-1.3-2.8-2-5.8-2.1-8.9l75.6,10.1c3.6,0.5,6.6,3,7.7,6.4l54.7,170.9
	C343.8,645.7,342.8,650.1,339.9,653.3z"/>
<path class="st6" d="M336.1,644.2c-0.6,0.9-1.3,1.8-2.1,2.6l-50,46.5L215.7,467l65.6,6.5c4.6,0.5,8.5,3.7,9.9,8.1L337.3,635
	C338.2,638.1,337.8,641.5,336.1,644.2z"/>
<path class="st3" d="M336.1,644.2l-54.8-170.7c4.6,0.5,8.5,3.7,9.9,8.1L337.3,635C338.2,638.1,337.8,641.5,336.1,644.2z"/>
<circle class="st23" cx="630.1" cy="362.3" r="29"/>
<path class="st23" d="M600.7,358c0-15.4,12-28.1,27.3-29c-0.6,0-1.1-0.1-1.7-0.1c-16-0.3-29.2,12.5-29.5,28.6s12.5,29.2,28.6,29.5
	c0.3,0,0.6,0,0.9,0c0.6,0,1.2,0,1.7-0.1C612.7,386.1,600.7,373.4,600.7,358z"/>
<path class="st3" d="M604.5,362.3c0-15.4,12-28.1,27.3-29c-0.6,0-1.2-0.1-1.7-0.1c-16,0.3-28.8,13.5-28.6,29.5
	c0.3,15.7,12.9,28.3,28.6,28.6c0.6,0,1.2,0,1.7-0.1C616.5,390.4,604.5,377.7,604.5,362.3z"/>
<path class="st24" d="M480.7,687.7c-2.7,1.4-5.5,2.7-8.4,3.8c-7.5,2.9-18.8,6.3-29.4,5c-17.8-2.2-28.5,3.7-28.5,3.7l-4-29.6
	c0,0,13.1-3.9,18.5-4.8c4-0.8,18.5-7.4,25.4-10.7c2.3-1.1,3.8-1.8,3.8-1.8h13.3L480.7,687.7z"/>
<path class="st3" d="M480.7,687.7c-2.7,1.4-5.5,2.7-8.4,3.8c-0.9-26.4-11-34.2-18-36.5c2.3-1.1,3.8-1.8,3.8-1.8h13.3L480.7,687.7z"
	/>
<path class="st25" d="M530,599.2v64.9l-3.5,4.1l-11.2,13.2c0,0-2.5,7-6.7,10c-4.2,3-13.7-1-13.7-1l-2.7,4.3c0,0-6,1.2-8.8,0
	c-2.8-1.2-9.8,3.3-9.8,3.3c1-47.6-24.8-43.8-24.8-43.8c17.8-19.2,28.8-13,28.8-13l7.7-7.3l9.5-9.6c-2.2-7.4,5.7-9,7.5-9.9
	c1.8-0.8,6.7-8.8,6.5-9.8c-0.2-1,1.5-7.5,4.2-7.2c1.5,0.1,3.5-2.5,5-4.8c1.2-1.9,2.1-3.6,2.1-3.6L530,599.2z"/>
<path class="st25" d="M553,534.2l19.6-10l-1.1,11.8l3.9,11.8c0,0-3.5,9.2-4,10.2c-0.4,1-8.9,21.9-8.9,21.9l-6.8-8.5L553,534.2z"/>
<polyline class="st3" points="555.8,571.3 553,534.2 572.7,524.2 "/>
<path class="st24" d="M637.4,523.2c0,0-6.5,9.4-15.5,21.3c-20.8,27.8-54.6,69.6-49.5,39.3c0.2-1,0.3-2,0.4-3
	c-1.3,0.9-4.2,0.1-7.3-1.4l-0.2-0.1c-1.6-0.8-3.1-1.6-4.5-2.6c-0.2-0.1-0.3-0.2-0.5-0.3c-3.5-2.5-6.3-5.3-6.2-7.3
	c2.5-43.5,12.6-22.7,15.5-17.9c0.2,0.3,0.4,0.6,0.6,0.9c-0.1-0.3-0.3-0.7-0.4-1.1c-2-4.9-5.8-12.2-10.2-20V531l-0.6-1
	c-3.6-6.5-7.5-13.2-11.1-19.1l-1-1.6c-5.6-9.3-9.9-16.3-9.9-16.3s25.3-23.1,46.6-37.2c17.8-11.7,32.8-17.2,28,2.5
	c-3.1,12.7-2.2,23.5,0.7,32.5c0.1,0.3,0.2,0.7,0.3,1c0.6,1.7,1.2,3.4,2,5c1,2.3,2.2,4.5,3.5,6.6
	C623.1,511.3,629.6,518.1,637.4,523.2z"/>
<path class="st22" d="M598.1,488.1c-12,13-14.5,25.5-33.6,25.5c-5.6,0-11.1-0.7-16.5-2.1c-6-10.1-10.8-17.9-10.8-17.9
	s85.2-77.9,74.6-34.6C608.5,472.1,595,478.9,598.1,488.1z"/>
<path class="st24" d="M630.1,445.9c0,36.2-29.4,65.6-65.6,65.6c-36.2,0-65.6-29.4-65.6-65.6s29.4-65.6,65.6-65.6c0,0,0,0,0,0
	c36.1-0.2,65.5,29,65.6,65C630.1,445.5,630.1,445.7,630.1,445.9z"/>
<path class="st3" d="M563,559.5c0,0,1.2,18.7,13,17.2s2.8,39.6,2.8,39.6l-13.1,12l-14.2,4.4c0,0-12.5-3.7-12.3-4.3
	c0.2-0.7,5-39.6,5-39.6l7.3-20.8L563,559.5z"/>
<path class="st21" d="M563,560.8c0,0,1.2,18.7,13,17.2s2.8,39.6,2.8,39.6l-13.1,12l-14.2,4.3c0,0-12.5-3.7-12.3-4.3s5-39.6,5-39.6
	l7.3-20.8L563,560.8z"/>
<path class="st3" d="M530,599.2v64.9l-3.5,4.1c-3.6-9.5-6.3-22.5-4.6-34.1c2.2-15.4-2.2-35.1-3.8-41.5c1.2-1.9,2.1-3.6,2.1-3.6
	L530,599.2z"/>
<path class="st3" d="M564.5,562.8c-0.4,3.7-1.4,7.2-2.8,10.6c-0.4,1-0.9,2-1.3,3c-3.5-2.5-6.3-5.3-6.2-7.3
	c2.5-43.5,12.6-22.7,15.5-17.9C568.2,552.3,565.1,555.4,564.5,562.8z"/>
<path class="st3" d="M569.8,551c-2.1-5.1-6.2-12.9-10.8-21.1l0.6-0.3l10.6,21.2C570.1,550.9,569.9,550.9,569.8,551z"/>
<path class="st3" d="M637.4,523.2c0,0-72.3,103.9-64.9,60.6c0.2-1,0.3-2,0.4-3c-1.3,0.9-4.3,0.1-7.6-1.5c0.5-2.9,0.8-4.9,0.8-4.9
	l8-22.6c0,0,4.6-18,4-21.6l0.2-0.1l39.8-26.7h0l0,0C623,511.3,629.6,518.1,637.4,523.2z"/>
<path class="st25" d="M712.3,601.8l-5.7,29.3l-17,123.6H542.1c0,0,2.7-21.6,2.7-25s-3-8.3-2.7-12c0.3-3.7,1.6-1,0-7.3
	c-1.6-6.3-2.3-23.7-7.6-29.6c-5.3-6-14-28-11.4-46.6c2.7-18.6-4.3-43.6-4.3-43.6s-6-8.7,0-9c6-0.3,8.3,0.3,8-5.7
	c-0.3-6,2.7-17.3,6.3-19.6c3.7-2.3,9-11,10-14.3c0.3-0.8,0.9-1.6,1.5-2.2c3-2.9,9.1-5.8,9.1-5.8l5.8-2.9v0.1l10.6,21.1
	c0,0-4.9,2.4-5.8,12.1c-0.4,3.7-1.4,7.2-2.8,10.6c-0.3,0.7-0.6,1.3-0.8,1.9c-0.9,1.9-1.7,3.6-2.5,4.9l0,0c-1.1,2-1.9,3.2-1.9,3.2
	s-0.3,2.3-0.7,5.4l0,0c-0.9,6.5-2.4,16.7-3.3,19.2c-0.8,2.2-2.3,5.9-3.2,9.3c-0.5,2.1-0.9,4-0.6,5.3c0,0.1,0,0.2,0.1,0.3
	c1,3.1,6-10.2,6-10.2s3.7-11.3,5.3-11.3c1.3,0,4.1-16,5.4-23.4c0.4-2.2,0.6-3.6,0.6-3.6l8-22.6c0,0,1.1-4.3,2.2-9.1
	c1.1-5.1,2.2-10.7,1.8-12.6l0.2-0.1l39.8-26.7h0l0.6-0.4h-0.1c-0.3,0-1.1-0.5-2.6-4.1c-0.4-0.9-0.8-2-1.3-3.4c0,0,12.7-5.1,17.3-1.4
	c0.3,0.2,0.6,0.5,0.8,0.8c0.1,0.2,0.2,0.4,0.3,0.5c3,6.2,4.3,10.8,7.3,14.8c0.3,0.4,0.7,0.8,1.1,1.2c3.6,3.8,10.8,8.2,9.6,9.4
	c-1.3,1.3,10,7,10,7s6.6,3.8,8.7,7c0.4,0.5,0.6,1.1,0.6,1.7c0,3.3,9.7,5.3,12.7,5.3c3,0,17.3,31,24.3,34.6S712.3,601.8,712.3,601.8z
	"/>
<g class="st14">
	<path d="M562.9,552.1c0,0-4.9,2.4-5.8,12.1c-0.4,3.7-1.4,7.2-2.8,10.6c-1,2.3-2.1,4.6-3.3,6.8l0,0c-1.1,2-1.9,3.2-1.9,3.2
		s-0.3,2.3-0.7,5.4l0,0c-0.9,6.5-2.4,16.8-3.3,19.2c-0.8,2.2-2.3,5.9-3.2,9.3c-0.5,2.1-0.9,4-0.6,5.3c0,0.1,0,0.2,0.1,0.3
		c1,3.1,6-10.2,6-10.2s3.7-11.3,5.3-11.3c0.5,0,1.2-2.2,1.9-5.4c0.4-2.5,0.8-5.1,1-7.2l0,0c0.4-3.2,0.7-5.4,0.7-5.4s0.4-0.7,1.1-1.9
		c0.7-4.1,1.2-7.1,1.2-7.1l8-22.6c0,0,0.6-2.3,1.3-5.3l-8.5-16.9l-5.8,2.9l0,0L562.9,552.1z"/>
	<path d="M707.3,577.8c-7-3.7-21.3-34.6-24.3-34.6s-12.7-2-12.7-5.3c0-3.3-9.3-8.7-9.3-8.7s-11.3-5.7-10-7c1.2-1.2-6-5.7-9.6-9.4
		c-0.4-0.4-0.7-0.8-1.1-1.2c-3-4-4.3-8.7-7.3-14.8c-0.1-0.2-0.2-0.4-0.3-0.6c-0.2-0.3-0.5-0.6-0.8-0.8c-2-1.7-5.7-1.5-9.2-0.9
		c0.7,0.2,1.3,0.5,1.8,0.9c0.3,0.2,0.6,0.5,0.8,0.8c0.1,0.2,0.2,0.4,0.3,0.6c3,6.2,4.3,10.8,7.3,14.8c0.3,0.4,0.7,0.8,1.1,1.2
		c3.6,3.8,10.8,8.2,9.6,9.4c-1.3,1.3,10,7,10,7s9.3,5.3,9.3,8.7c0,3.3,9.7,5.3,12.7,5.3c3,0,17.3,31,24.3,34.6s5,24,5,24l-5.7,29.3
		l-17,123.6h7.3l17-123.6l5.7-29.3C712.3,601.8,714.3,581.5,707.3,577.8z"/>
</g>
<path class="st24" d="M416.5,671.2c0,0-42.4-12.3-45.4,6.6c-3,18.8,17.3,29.6,30.3,29.3c13-0.3,18.7-12.7,18.7-12.7L416.5,671.2z"/>
<path class="st24" d="M628.9,729.1c0,0-9.5,6.8-29.6,6.8s-43.6,4.3-43.6,4.3s-30-70.6-90.1-10.2c0,0-10.8,14,45.3,15.5
	c0,0,19.8-0.7,24.1,9.2h112.1l15.3-11.5L628.9,729.1z"/>
<path class="st21" d="M403.4,640.8c0,0-2.8-6.7-6.2,0l-1.8,51.6l4,12.2l4-10.8L403.4,640.8z"/>
<path class="st3" d="M632.7,496.2c-5.8,2-12.2,6.6-14.1,8.1c-0.3,0-1.5-0.8-3.9-7.5C614.7,496.7,629.1,491,632.7,496.2z"/>
<path class="st25" d="M570.2,552.1c0,0-4.9,2.4-5.8,12.1c-0.4,3.7-1.4,7.2-2.8,10.6l-3.3,6.8l0,0l-2.6,8.6l0,0l0.3,17.5l-6.8,11
	l-0.6,5.3l-1.8,16.4l-9-4.3c0,0,3.7-26.5,6.5-31.8c2.8-5.4,6.5-33.7,6.5-33.7s-0.2-10.4,1.2-12.2s-2.3-1.5-2.7-5.3
	c-0.2-2.3-2.7-8.6-4.8-13.3c3-2.9,9.1-5.8,9.1-5.8l5.8-2.9L570.2,552.1z"/>
<path class="st3" d="M570.2,552.1c0,0-4.9,2.4-5.8,12.1c-0.4,3.7-1.4,7.2-2.8,10.6l-3.3,6.8l0,0l-2.6,8.6l0,0l0.3,17.5l-6.8,11
	l-0.6,5.3l-1.8,16.4l-9-4.3c0,0,3.7-26.5,6.5-31.8c2.8-5.4,6.5-33.7,6.5-33.7s-0.2-10.4,1.2-12.2s-2.3-1.5-2.7-5.3
	c-0.2-2.3-2.7-8.6-4.8-13.3c3-2.9,9.1-5.8,9.1-5.8l5.8-2.9L570.2,552.1z"/>
<path class="st3" d="M641.5,514.1c-7.4,6.1-27.4,23.3-29.7,35c-2.8,14.4-11.3,13-11.3,13c-10.6-23-17.9-28.7-22.1-29.5l39.8-26.7
	c0,0,0,0,0,0l0.6-0.4h-0.1c-0.3,0-1.1-0.5-2.6-4.1l15.9-4.8c0.3,0.2,0.6,0.5,0.8,0.8c0.1,0.2,0.2,0.4,0.3,0.5
	c3,6.2,4.3,10.8,7.3,14.8C640.7,513.3,641.1,513.7,641.5,514.1z"/>
<path class="st25" d="M641.5,512.8c-7.4,6.1-27.4,23.3-29.7,35c-2.8,14.4-11.3,13-11.3,13c-10.6-23-17.9-28.7-22.1-29.5l39.8-26.7h0
	l0.6-0.4h-0.1c-0.3,0-1.1-0.5-2.6-4.1l15.9-4.8c0.3,0.2,0.6,0.5,0.8,0.8c0.1,0.2,0.2,0.4,0.3,0.5c3,6.2,4.3,10.8,7.3,14.8
	C640.7,512,641.1,512.4,641.5,512.8z"/>
<path class="st3" d="M596.4,629.5c0.5-0.2,26.5-14.9,23.5-3.7S596.4,629.5,596.4,629.5z"/>
<path class="st3" d="M484.2,643.5c0,0,13.7,21.2,18.5,20.6C507.5,663.4,484.2,643.5,484.2,643.5z"/>
<path class="st3" d="M501.2,635.6c0,0,0.8,16.5,8,17.6C516.3,654.4,501.2,635.6,501.2,635.6z"/>
<path class="st3" d="M576.9,688.6c0,0,17,28.2,13.7,38L576.9,688.6z"/>
<path class="st3" d="M596.6,691.9c0,0,22.9,30.1,19,32.6C611.6,727.1,596.6,691.9,596.6,691.9z"/>
<path class="st3" d="M545,643.5c0,0-2.4,21.4,6.5,27.7L545,643.5z"/>
<path class="st3" d="M647.9,548.2c0,0-39.3,30.5-33,62.1c6.3,31.6,12.4,34,12.4,34s2.3,12.7,6.7,18c4.3,5.3,3.7,8.8,3.7,8.8
	s4-1.8,5.3,7.3s8.3,15.7,8.3,15.7s2.3,7.3-3.7,11.3s-4.6,8.3-4.6,8.3l-24.3,14.2l27.1,26.8h70c0,0-2-3.5,2.3-8.5
	c4.3-5,2.2-24.8,2.2-24.8s-2.4-3.2,0.5-10.2s-2.5-27-2.5-27l-6.2-19.5c0,0-5.2-13.8-4.3-21.2c0.8-7.4-1.7-15.5-1.7-15.5l-13.4-42.4
	C692.5,585.7,693.2,543.4,647.9,548.2z"/>
<path class="st25" d="M649.2,548.2c0,0-39.3,30.5-33,62.1c6.3,31.6,12.3,34,12.3,34s2.3,12.7,6.7,18c4.3,5.3,3.7,8.8,3.7,8.8
	s4-1.8,5.3,7.3s8.3,15.7,8.3,15.7s2.3,7.3-3.7,11.3c-6,4-4.6,8.3-4.6,8.3l-24.3,14.2l27.1,26.8H717c0,0-2-3.5,2.3-8.5
	c4.3-5,2.2-24.8,2.2-24.8s-2.4-3.2,0.5-10.2c3-7-2.5-27-2.5-27l-6.2-19.5c0,0-5.2-13.8-4.3-21.2c0.8-7.4-1.7-15.5-1.7-15.5
	l-13.4-42.4C693.9,585.7,694.5,543.4,649.2,548.2z"/>
<path class="st3" d="M662.4,569.7c0,0,28,9.5,35.5,14.2C705.3,588.5,686.9,565.3,662.4,569.7z"/>
<path class="st3" d="M677,713.7c0,0,39.8,5,37.5,12.8C712.2,734.4,677,713.7,677,713.7z"/>
<path class="st3" d="M669.2,722.2c0,0,29.1,9.3,24,17C688,746.9,669.2,722.2,669.2,722.2z"/>
<path class="st3" d="M669.8,536.2c-15.9,3.1-31.8,5.7-47.8,8.4l-4.2,0.7c-8.8,1.4-17.6,2.9-26.5,2.9c-4.3,0-8.8-0.4-12.7-2.5
	c-0.8-0.4-1.6-1-2.3-1.5c-2.7-2.2-4.6-5.3-4.6-8.7c0-6.2,6-10.6,11-14.2c7.4-5.3,14.8-12,17.7-20.4c0.5-1.6,0.9-3.2,1.1-4.9
	c0.9-7.1-1.8-14.2-4.5-20.9c-3-7.2-7.2-15-13.3-19.4c-2.5-1.8-5.3-3-8.4-3.4c-9.3-1.2-18.2,5.4-27.6,5c-7.6-0.3-14.1-5.2-18.7-11
	c-3.3-4.2-5.5-9.8-10.5-12.3c-5.5-2.7-11.7-3.4-17.7-4.3c8.9-35.1,44.7-56.4,79.8-47.4S637,427,628,462.1
	c-2.7,10.7-8.1,20.5-15.6,28.6c0.1,0.3,0.2,0.7,0.3,1c0.6,1.7,1.2,3.4,2,5c0,0,12.7-5.1,17.3-1.4c0.3,0.2,0.6,0.5,0.8,0.8
	c0.1,0.2,0.2,0.4,0.3,0.5c3,6.2,4.3,10.8,7.3,14.8c0.3,0.4,0.7,0.8,1.1,1.2c3.6,3.8,10.8,8.2,9.6,9.4c-1.3,1.3,10,7,10,7
	S667.7,533,669.8,536.2z"/>
<path class="st23" d="M482,417.9c-5.9-7.6-5.3-18.4-3.1-27.8c1.4-5.9,3.3-11.9,7.2-16.6c3.8-4.7,9.9-8,15.9-7.2
	c3.5,0.5,6.7,2.3,10,3.6c14.9,5.9,33.4,1,43.5-11.5c2.3-2.8,4.2-6,6.8-8.5c3-2.6,6.6-4.4,10.5-5.3c16.8-4.2,34.1,4.1,48.5,13.8
	c12.3,8.3,23.9,17.9,32,30.3c7.3,11.3,11.3,24.5,11.6,37.9c0.4,21.3-8.6,42.9-3.4,63.6c5.1,20.4,25,36.2,46.1,36.3
	c-28.9,7.1-58.3,12-87.7,16.8c-8.8,1.5-17.6,2.9-26.5,2.9c-4.3,0-8.8-0.4-12.7-2.5c-3.8-2-7-5.9-7-10.2c0-6.2,6-10.6,11-14.2
	c8.8-6.3,17.5-14.5,18.8-25.3c0.9-7.1-1.8-14.2-4.5-20.9c-4.2-10.1-10.7-21.3-21.6-22.8c-9.3-1.2-18.2,5.4-27.6,5
	c-7.6-0.3-14.1-5.2-18.7-11c-3.3-4.2-5.5-9.8-10.5-12.3C508.1,425.8,491.7,430.4,482,417.9z"/>
<path class="st23" d="M652.1,379c12.6-8.8,16.2-25.8,8.2-38.9c0.4,0.4,0.7,0.9,1,1.4c9.3,13,6.4,31.2-6.7,40.5
	c-13,9.3-31.2,6.4-40.5-6.7c-0.2-0.2-0.3-0.5-0.5-0.7c-0.3-0.5-0.6-1-0.9-1.5C622.2,385.2,639.5,387.8,652.1,379z"/>
<g class="st14">
	<path d="M560.1,355.5c2.3-2.8,4.2-6,6.8-8.5c0.4-0.4,0.9-0.8,1.4-1.1c-2.2,0.9-4.3,2.2-6,3.8c-2.7,2.5-4.6,5.6-6.8,8.5
		c-2.3,2.9-5,5.3-8.1,7.4C552.3,363.2,556.7,359.8,560.1,355.5z"/>
	<path d="M624.4,540.4c-8.8,1.4-17.6,2.9-26.5,2.8c-4.3,0-8.8-0.4-12.7-2.5s-7-5.9-6.9-10.3c0-6.2,6-10.5,11-14.2
		c8.8-6.3,17.5-14.5,18.8-25.3c0.9-7.1-1.8-14.2-4.5-20.9c-4.2-10.1-10.7-21.3-21.6-22.8c-9.3-1.2-18.2,5.4-27.6,5
		c-7.6-0.3-14.1-5.2-18.7-11c-3.4-4.2-5.5-9.8-10.5-12.3c-12.5-6.2-28.9-1.5-38.6-14.1c-5.9-7.6-5.3-18.4-3.1-27.8
		c1.4-5.9,3.3-11.9,7.2-16.6c1.1-1.3,2.3-2.5,3.6-3.5c-3.2,1.3-6.1,3.5-8.3,6.2c-3.9,4.7-5.8,10.7-7.2,16.6
		c-2.2,9.4-2.8,20.2,3.1,27.8c9.7,12.5,26.1,7.9,38.6,14.1c5,2.5,7.1,8.1,10.5,12.4c4.6,5.8,11.1,10.7,18.7,11
		c9.4,0.4,18.2-6.3,27.6-5c10.9,1.5,17.4,12.7,21.6,22.8c2.8,6.6,5.4,13.7,4.5,20.9c-1.3,10.7-10,19-18.8,25.3
		c-5.1,3.6-11,7.9-11,14.2c0,4.3,3.1,8.2,7,10.3c3.9,2,8.3,2.4,12.7,2.5c8.9,0.1,17.8-1.4,26.5-2.9c29.4-4.8,58.8-9.7,87.7-16.8
		c-1.7,0-3.4-0.1-5.1-0.4C676.6,531.8,650.5,536.1,624.4,540.4z"/>
</g>
<ellipse class="st24" cx="406.3" cy="680.3" rx="12.7" ry="6.9"/>
<path class="st26" d="M615.7,165.2c-14.1-3.8-28.4-7.5-42.9-8.1c-14.6-0.6-29.8,2.2-41.7,10.7c-6,4.2-10.9,9.7-15.9,15
	c-26.6,28.2-56.4,53.4-88.6,74.9c-13,8.7-26.9,17-42.4,19.1c-15.5,2.2-33-3.2-41-16.6l4.8-2.4"/>
<path class="st21" d="M740.3,144.9h-99.9c-3.9,0-7.1-3.2-7.1-7.1v-14.3c0-3.9,3.2-7.1,7.1-7.1c0,0,0,0,0,0h99.9
	c3.9,0,7.1,3.2,7.1,7.1v14.3C747.4,141.7,744.2,144.9,740.3,144.9z M729.5,125.2c-3,0-5.3,2.4-5.3,5.4c0,3,2.4,5.3,5.4,5.3
	c3,0,5.3-2.4,5.3-5.3C734.9,127.6,732.5,125.2,729.5,125.2C729.6,125.2,729.6,125.2,729.5,125.2z M715.3,125.2c-3,0-5.3,2.4-5.3,5.3
	c0,3,2.4,5.3,5.3,5.3c3,0,5.3-2.4,5.3-5.3c0,0,0,0,0,0C720.6,127.6,718.2,125.3,715.3,125.2L715.3,125.2z M740.3,180.5h-99.9
	c-3.9,0-7.1-3.2-7.1-7.1v-14.3c0-3.9,3.2-7.1,7.1-7.1h99.9c3.9,0,7.1,3.2,7.1,7.1v14.3C747.4,177.3,744.2,180.5,740.3,180.5z
	 M729.5,160.9c-3,0-5.4,2.4-5.4,5.4c0,3,2.4,5.4,5.4,5.4c3,0,5.4-2.4,5.4-5.4c0,0,0,0,0,0C734.9,163.3,732.5,160.9,729.5,160.9
	C729.6,160.9,729.6,160.9,729.5,160.9z M715.3,160.9c-3,0-5.4,2.4-5.4,5.3s2.4,5.4,5.3,5.4c3,0,5.4-2.4,5.4-5.3c0,0,0,0,0,0
	C720.6,163.3,718.2,160.9,715.3,160.9L715.3,160.9z M740.3,216.2h-99.9c-3.9,0-7.1-3.2-7.1-7.1v-14.3c0-3.9,3.2-7.1,7.1-7.1h99.9
	c3.9,0,7.1,3.2,7.1,7.1v14.3C747.4,213,744.2,216.2,740.3,216.2C740.3,216.2,740.3,216.2,740.3,216.2z M729.5,196.6
	c-3,0-5.4,2.4-5.4,5.4c0,3,2.4,5.4,5.4,5.4c3,0,5.4-2.4,5.4-5.4v0C734.9,199,732.5,196.6,729.5,196.6
	C729.6,196.6,729.6,196.6,729.5,196.6z M715.3,196.6c-3,0-5.4,2.4-5.4,5.3s2.4,5.4,5.3,5.4c3,0,5.4-2.4,5.4-5.3c0,0,0,0,0,0
	C720.6,199,718.2,196.6,715.3,196.6L715.3,196.6z"/>
<path class="st26" d="M756.4,164c6.4-0.7,13.3-0.5,18.8,2.9c5.8,3.6,9.2,10.3,10.3,17s0.3,13.6-0.5,20.4l-4.3,36.6
	c-0.6,5.1-1.2,10.5,0.5,15.4c1.7,4.9,6.3,9.2,11.4,8.7"/>
<path class="st26" d="M337.8,474.7c16.5,0.4,35.1,0,46.5-11.9c8.7-9.1,10.7-22.3,13.6-34.5c5.3-22,14.8-43.2,29.4-60.5
	c14.5-17.4,34.2-30.7,56.1-36.1c17.7-4.3,36.2-3.5,54-7.4c17.7-3.9,36-14.4,40.9-31.9"/>
<path class="st27" d="M614.4,253.9l-44.5,16.2c-0.5,0.2-0.7,0.7-0.5,1.1c0.1,0.2,0.2,0.3,0.3,0.4l6.6,3.7c0.4,0.2,0.7,0.6,0.8,1
	l3.8,12.1c0,0.5,0.9,0.8,1,0.3l0.5-9.4c0.2-0.7,0.5-1.3,1-1.8l24.5-17.8c0.1-0.1,0.3-0.1,0.5-0.1c0.3,0.1,0.4,0.4,0.3,0.6
	c0,0.1-0.1,0.1-0.1,0.2l-21.8,19.8c-0.5,0.5-0.8,1.1-1,1.7l-2.3,7.9c0,0.7,0.5,1.1,1,0.5l4.6-4.1c0.3-0.3,0.9-0.3,1.2,0c0,0,0,0,0,0
	l9.1,9c0.3,0.3,0.9,0.3,1.2,0c0.1-0.1,0.2-0.2,0.2-0.3l14.5-40c0.2-0.4,0-0.9-0.5-1.1C614.7,253.9,614.5,253.9,614.4,253.9
	L614.4,253.9z"/>
</svg>
