<?xml version="1.0" encoding="utf-8"?>
<!-- Generator: Adobe Illustrator 23.0.1, SVG Export Plug-In . SVG Version: 6.00 Build 0)  -->
<svg version="1.1" id="Layer_1" xmlns="http://www.w3.org/2000/svg" xmlns:xlink="http://www.w3.org/1999/xlink" x="0px" y="0px"
	 viewBox="0 0 1121 851.8" style="enable-background:new 0 0 1121 851.8;" xml:space="preserve">
<style type="text/css">
	.st0{opacity:0.1;fill:#6C63FF;enable-background:new    ;}
	.st1{opacity:0.3;fill:#1158D8;enable-background:new    ;}
	.st2{fill:#535461;}
	.st3{opacity:0.1;enable-background:new    ;}
	.st4{fill:#FFFFFF;}
	.st5{opacity:0.2;}
	.st6{fill:#6C63FF;}
	.st7{fill:#1158D8;}
	.st8{fill:url(#SVGID_1_);}
	.st9{fill:#493232;}
	.st10{fill:#E5BBA8;}
	.st11{fill:#CBCDDA;}
	.st12{fill:#4C4C78;}
	.st13{opacity:5.000000e-02;enable-background:new    ;}
	.st14{fill:none;stroke:#0000FF;stroke-miterlimit:10;}
	.st15{fill:#474463;}
	.st16{fill:#282828;}
	.st17{fill:#FFB9B9;}
	.st18{opacity:0.1;}
</style>
<title>interaction design</title>
<ellipse class="st0" cx="536.7" cy="817.3" rx="430.7" ry="29.9"/>
<path class="st1" d="M68.1,109.7c-26.8,31.4-33.6,71.3-34,109.4c-0.3,26.9,3.4,56.1,25.9,76c29.6,26.1,86.4,31.3,101.1,64.7
	c13,29.7-17.3,59.5-46.3,80.5s-62.4,46.6-57,77.8c3.4,19.9,22.3,35.5,41.1,48.7c35.8,25,76,46.9,121.3,57.5
	c82.3,19.3,171.1-0.7,248.2-30.9c47.5-18.6,102.5-41.4,149.7-22.3c12.4,5.1,23,12.7,34.5,19c33.3,18.3,74.1,25,113.7,30.7
	c58.1,8.4,119.2,15.4,175.1,0.3c56-15.2,104.4-59.5,95.8-106.7c-8.1-44.5-59.5-73.5-100.5-104c-14.5-10.7-29.2-25-25.6-40.6
	c2.9-12.4,16.3-21,28.3-29c63.2-42.3,109.6-100.8,130.9-164.9c10.1-30.2,13.7-65.1-8.8-90.6c-18.1-20.6-49.2-30.4-78.8-38.6
	c-54.8-15.1-111.1-27.8-168.8-31.3s-117.3,3.2-168.6,24.9c-24.6,10.5-46.8,24.2-71.7,34.3c-70.4,28.6-153.4,24.7-232,20.2
	c-28.1-1.6-57.4-4.5-81.8-16.7c-21-10.6-33-18.2-59-19.3C150,56.4,97.2,75.5,68.1,109.7z"/>
<polygon class="st2" points="448.5,325 447.4,327.2 440.2,341.9 365.4,495.5 238.5,806.4 220.4,806.6 347.4,495.5 433.9,317.7 
	440.2,320.9 447.4,324.4 "/>
<polygon class="st2" points="671.1,806.6 656.2,806.4 529.3,495.5 456.5,345.9 447.4,327.2 446.3,325 447.4,324.4 456.5,319.9 
	460.8,317.7 546,495.5 "/>
<rect x="440.2" y="276" class="st2" width="16.2" height="530.6"/>
<path class="st2" d="M446.5,188.6c-11.4,0-20.6,9.2-20.6,20.6v7.4c-0.3,11.4,8.8,20.9,20.2,21.1s20.9-8.8,21.1-20.2
	c0-0.3,0-0.6,0-0.9v-7.4C467.1,197.8,457.9,188.6,446.5,188.6z M462,216.6c0,8.6-6.9,15.5-15.5,15.5s-15.5-7-15.5-15.5v-7.4
	c0-8.6,6.9-15.5,15.5-15.5s15.5,6.9,15.5,15.5l0,0V216.6z"/>
<polygon class="st3" points="546,495.5 529.3,495.5 456.5,345.9 456.5,495.5 440.2,495.5 440.2,341.9 365.4,495.5 347.4,495.5 
	433.9,317.7 440.2,320.9 440.2,276 456.5,276 456.5,319.9 460.8,317.7 "/>
<path class="st3" d="M467.1,210v6.6c0.3,11.4-8.8,20.9-20.2,21.1s-20.9-8.8-21.1-20.2c0-0.3,0-0.6,0-0.9V210h5.2v6.6
	c0,8.6,6.9,15.5,15.5,15.5s15.5-6.9,15.5-15.5V210H467.1z"/>
<rect x="134.4" y="211.4" class="st2" width="624.1" height="281.8"/>
<rect x="145.5" y="220.3" class="st4" width="600.5" height="256.7"/>
<g class="st5">
	<rect x="204.8" y="248.2" class="st6" width="28.4" height="12.9"/>
</g>
<g class="st5">
	<rect x="204.8" y="273.2" class="st6" width="28.4" height="12.9"/>
</g>
<g class="st5">
	<rect x="204.8" y="298.2" class="st6" width="28.4" height="12.9"/>
</g>
<g class="st5">
	<rect x="204.8" y="323.2" class="st6" width="28.4" height="12.9"/>
</g>
<g class="st5">
	<rect x="204.8" y="348.2" class="st6" width="28.4" height="12.9"/>
</g>
<g class="st5">
	<rect x="204.8" y="373.2" class="st6" width="28.4" height="12.9"/>
</g>
<g class="st5">
	<rect x="204.8" y="398.2" class="st6" width="28.4" height="12.9"/>
</g>
<g class="st5">
	<rect x="204.8" y="423.2" class="st6" width="28.4" height="12.9"/>
</g>
<g class="st5">
	<rect x="258.3" y="436.2" class="st6" width="28.4" height="12.9"/>
</g>
<g class="st5">
	<rect x="308.3" y="436.2" class="st6" width="28.4" height="12.9"/>
</g>
<g class="st5">
	<rect x="358.3" y="436.2" class="st6" width="28.4" height="12.9"/>
</g>
<g class="st5">
	<rect x="408.3" y="436.2" class="st6" width="28.4" height="12.9"/>
</g>
<g class="st5">
	<rect x="458.3" y="436.2" class="st6" width="28.4" height="12.9"/>
</g>
<g class="st5">
	<rect x="508.3" y="436.2" class="st6" width="28.4" height="12.9"/>
</g>
<g class="st5">
	<rect x="558.3" y="436.2" class="st6" width="28.4" height="12.9"/>
</g>
<g class="st5">
	<rect x="608.3" y="436.2" class="st6" width="28.4" height="12.9"/>
</g>
<g class="st5">
	<rect x="658.3" y="436.2" class="st6" width="28.4" height="12.9"/>
</g>
<rect x="258.3" y="342.2" class="st7" width="28.4" height="81"/>
<rect x="308.3" y="304.7" class="st7" width="28.4" height="118.6"/>
<rect x="358.3" y="273.2" class="st7" width="28.4" height="150"/>
<rect x="408.3" y="289.5" class="st7" width="28.4" height="133.7"/>
<rect x="458.3" y="261.1" class="st7" width="28.4" height="162.1"/>
<g class="st5">
	<rect x="508.3" y="323.2" class="st6" width="28.4" height="100"/>
</g>
<g class="st5">
	<rect x="558.3" y="323.2" class="st6" width="28.4" height="100"/>
</g>
<g class="st5">
	<rect x="608.3" y="323.2" class="st6" width="28.4" height="100"/>
</g>
<g class="st5">
	<rect x="658.3" y="323.2" class="st6" width="28.4" height="100"/>
</g>
<polygon class="st2" points="655,323 412,338 412,342.7 660.2,332.8 "/>
<linearGradient id="SVGID_1_" gradientUnits="userSpaceOnUse" x1="14.3455" y1="1100.1844" x2="14.3455" y2="412.1609" gradientTransform="matrix(1 0 0 1 788.63 -279.72)">
	<stop  offset="0" style="stop-color:#808080;stop-opacity:0.25"/>
	<stop  offset="0.54" style="stop-color:#808080;stop-opacity:0.12"/>
	<stop  offset="1" style="stop-color:#808080;stop-opacity:0.1"/>
</linearGradient>
<path class="st8" d="M942.9,421.7c0,0,12.7-20.9,9.3-53.7s-15.6-85.9-15.6-85.9s5.3-29.8-23.5-33.9c0,0-17.9-3.3-30.7-11.4
	c-4.8-3-8.8-6.6-11-11c0,0-0.2,0.5-0.5,1.4c-0.3-0.4-0.5-0.9-0.8-1.4c0,0-0.1,0.2-0.2,0.5l-4.9-7.6c0,0-0.7,0.7-1.8,1.9
	c-2-2.8-3.6-5.8-5-9c1.2-0.3,2.4-0.7,3.6-1.1c1.1-0.4,2.1-1,2.9-1.9c0.7-1,1.2-2.1,1.3-3.3c0.8-3.8,1-7.7,0.7-11.6
	c-0.3-3-0.9-6-0.7-9.1c0.2-3.3,1.4-6.4,1.5-9.6c0.3-5.7-2.6-11.2-6.1-15.8c-2.1-2.7-4.5-5.2-6.3-8.1c-1.6-2.5-2.7-5.3-4.4-7.8
	c-4-5.7-10.7-9.1-17.5-10.3c-6.8-1.2-13.9-0.4-20.7,0.7c-6,1-12,2.4-18,2.8c-5.2,0.3-9.5-1.5-14.3,2c-3.2,2.4-5.3,6-5.6,10
	c-0.1,0.7,0,1.3,0.2,2c0.3,0.7,0.6,1.3,1,1.9c2.1,4.2-1.1,9.2-0.7,13.9c0.5,4.3,3.9,7.6,8.2,8.1c-0.2,0.4-0.4,0.8-0.6,1.2
	c-9.3,20.9,0.2,45.4,21.1,54.7c4,1.8,8.3,2.9,12.7,3.4l1.9,1.4c4.2,3.3,8.9,7.1,13.5,11.4l-0.1,0.1l-0.7-0.4c-1.4,1.1-2.8,2.1-4.4,3
	c-4.2,2.6-11,5.9-18.6,6.3c0,0-13.7,7.3-18.4,31.2c-6.8,6.1-21.2,17-40.3,19.9c-26.9,4-60,5.3-60,5.3s-0.3,0.5-0.7,1.4l-3.1-0.6
	c0,0,0,0.4-0.1,1l-1.2-0.5c-9.5-4.1-28.5-10.2-30.8,6.5c-3.2,22.4,18.1,19.8,18.1,19.8c4.2-1.6,8.5-2.9,12.9-3.9l1.2-0.2
	c0.2,0.6,0.5,1.1,0.8,1.6h2.9c1,2.1,2.2,4.1,3.6,5.9l67.6-1.5c0,0,11.5-2.5,22.2-0.9c-4.7,34.8-10.1,72.9-10.1,72.9
	s-11.5,60.4-3.4,66.7c4.7-1.6,9.4-2.8,14.3-3.8c0.1,3.7,0.5,7.4,1.2,11.1l5.1,33.7c0,0,2,34.4,8.7,55l5.9,28.1l4.9,21.2l2.8,36
	c3.8,15.3,6.6,30.8,8.3,46.4c2.6,24.2,16.8,63.4,18.7,68.5c-4.8,6.8-14.8,18.5-27.3,19.7c-17.8,1.7-18.2,12.5-5.8,16.3
	s38.6,0,38.6,0l36.9-9.1c-1.1,6.8-1.7,12.2-0.9,12.8c2.4,1.7,38.2,11,39.5-3.9c0.1-1.2,0.2-2.4,0.3-3.6c0.5-9.5-0.7-19.1-3.8-28.1
	c-0.3-0.9-0.5-1.8-0.8-2.7c0.5-0.6,1-1.2,1.5-1.9c0,0,2.6-40.1,4.5-54.5c0.2-1.2,0.3-2.6,0.3-4.1c0.9-17.2-5.4-62.6-5.4-62.6
	s-7.8-29.5-7.5-43.1c0-1.1,0.2-2.2,0.6-3.3c0,0,0-0.3-0.1-0.7c0-0.2,0.1-0.4,0.2-0.6c0,0-3.9-27-3.4-43.1c0.1-2.4,0.4-4.8,1-7.1
	c0.6-3.1,0.9-6.2,1-9.3c0.5-11-0.1-30-0.9-47.8c0.1-0.3,0.2-0.6,0.3-1c0.2-1.4,0-2.9-0.5-4.2c-0.1-1.2-0.1-2.3-0.2-3.4
	c0.3-1.1,0.6-2.3,0.8-3.6h0.5v0.1c0,0,33.6-1.6,41.3-10.6c0,0-7.8-24.3-12.1-44L942.9,421.7z M798,346.3l-0.5-0.2
	c0.8-3,1.9-6.5,3-10.1C799.5,339.9,798.7,343.5,798,346.3z M832.1,246.8l0.2,0.1L832.1,246.8L832.1,246.8z M874.1,767.3
	c-1.8-6.2-9-31.6-8.8-43.7c0.1-1.1,0.2-2.1,0.5-3.1c0.7-2.2,1-4.5,1-6.8c0.7-12.6-4.1-35.3-4.1-35.3s-10.8-30.5-10-54.8
	c0-0.6,0.1-1.2,0.1-1.8c0.2-2.3,0.3-4.8,0.4-7.4v-0.1c0.4-9.4,0.3-20.7,0-31.2l-0.1-0.4c-0.4-13.9-1.1-26.5-1.3-31.4
	c1,7.2,7.4,51.8,10.2,59.1c0,0,1.5,20.6,8.4,38l7.5,45.3c0,0,1.9,53.9,5.1,69.1c1.4,6.8,2.7,11.3,3.6,14.3
	c-1.3,6.1-3.4,16.2-4.8,24.7C881.1,796.2,878.1,775.3,874.1,767.3L874.1,767.3z"/>
<path class="st9" d="M842,768.7c0,0-12.5,22.8-30.2,24.5s-18.1,12.3-5.7,16.2s38.3,0,38.3,0l37-9.1c0,0-4.5-36.6-10.4-38.5
	C864.9,759.8,842,768.7,842,768.7z"/>
<path class="st9" d="M887.1,769.1c0,0-9.4,42.1-7,43.8s37.8,10.8,39.1-3.8c0.1-1.2,0.2-2.4,0.3-3.5c0.5-9.4-0.7-18.9-3.7-27.8
	c-1-3-1.7-6.2-1.4-8.6C914.9,763.2,887.1,769.1,887.1,769.1z"/>
<path class="st10" d="M875.5,236.1c0,0-28.7,70.5-23.6,47.9c3.4-15-18.5-34.9-33.6-46.6c-7.7-6-13.6-9.8-13.6-9.8
	s53.9-62.8,50.1-35.7c-1,7.4,0,15,2.9,21.9C863.6,227.8,875.5,236.1,875.5,236.1z"/>
<path class="st10" d="M692.1,336.3c-1.5-0.4-4-0.1-6.6,0.4c-4.4,1-8.6,2.3-12.8,3.9c0,0-21.1,2.5-17.9-19.6
	c2.4-16.5,21.2-10.5,30.6-6.4c3.2,1.4,5.3,2.6,5.3,2.6L692.1,336.3z"/>
<path class="st3" d="M692.1,336.3c-1.5-0.4-4-0.1-6.6,0.4c-2.3-5.8-0.5-19.5-0.2-22.1c3.2,1.4,5.3,2.6,5.3,2.6L692.1,336.3z"/>
<path class="st11" d="M692.2,315.1l-5.5-1c0,0-2.8,19,0.9,24h6.4L692.2,315.1z"/>
<path class="st12" d="M803.1,349.8c0,0-16.9-10.1-18.9,2.6s-4.7,34.6-4.7,34.6l-4.7,27.8l-6.1,55.6l0.8,9.5c0,0,18-6.1,22.2-3.9
	s7.7-23.4,7.7-23.4l7-26.4l1.1-55.9L803.1,349.8z"/>
<path class="st3" d="M803.1,349.8c0,0-16.9-10.1-18.9,2.6s-4.7,34.6-4.7,34.6l-4.7,27.8l-6.1,55.6l0.8,9.5c0,0,18-6.1,22.2-3.9
	s7.7-23.4,7.7-23.4l7-26.4l1.1-55.9L803.1,349.8z"/>
<path class="st12" d="M794,284.3c0,0-17.5,19.8-44.2,23.8s-59.5,5.3-59.5,5.3S682,328.2,694,344l67-1.5c0,0,14.8-3.2,26.3,0
	L794,284.3z"/>
<path class="st13" d="M794,284.3c0,0-17.5,19.8-44.2,23.8s-59.5,5.3-59.5,5.3S682,328.2,694,344l67-1.5c0,0,14.8-3.2,26.3,0
	L794,284.3z"/>
<path class="st14" d="M648.3,365.5"/>
<path class="st3" d="M854.8,213c-6.5,14-17.9,24.3-34.4,24.3c-0.7,0-1.4,0-2.2,0c-7.7-6-13.6-9.8-13.6-9.8s53.9-62.8,50.1-35.7
	C853.5,200.1,852.2,206.8,854.8,213z"/>
<path class="st10" d="M861.5,195c0,22.7-18.4,41.1-41.1,41.1c-22.7,0-41.1-18.4-41.1-41.1s18.4-41.1,41.1-41.1
	c22.6,0,41,18.3,41.1,40.9C861.5,194.9,861.5,194.9,861.5,195z"/>
<path class="st11" d="M886.6,446.1c0,0-91.6,8.1-95-3.6s9.3-43.4,9.3-43.4l-4.1-44.2l-0.2-1.7c0,0,11.5-47.9,11.1-51.7
	c-0.4-3.4,18.5-43.6,22.4-51.8c0.5-1,0.7-1.5,0.7-1.5l0.7,0.4l0.3,0.2l4.5,2.6l17.7-4.2l21.4-11.2l2,122.4L886.6,446.1z"/>
<path class="st3" d="M839,249.7c0,0-6.3-1.7-8.7,4.6c-1,2.7-2.1,5.3-3.4,7.9l-2.4,14.6l-4.5,23l-3.3,101.8l1.5,18.1l8.2-14.6
	l1.5-95.1v-11.8c0.5-10.2,2.8-20.3,6.8-29.7l1.1-2.7l7.1-9.1L839,249.7z"/>
<path class="st12" d="M837.7,248.5c0,0-6.3-1.7-8.7,4.6c-1,2.7-2.1,5.3-3.4,7.9l-2.4,14.6l-4.5,23l-3.3,101.8l1.5,18.1l8.2-14.6
	l1.5-95V297c0.5-10.2,2.8-20.3,6.8-29.7l1.2-2.7l7.1-9.1L837.7,248.5z"/>
<path class="st3" d="M864.5,222.2c0,0-21.7,23-29.3,25.7c0,0,3.8,17.4,7.7,20.8c0,0,22.8-23.2,26.8-25.1l3.4-8.3L864.5,222.2z"/>
<path class="st11" d="M864.5,220.9c0,0-21.7,23-29.3,25.7c0,0,3.8,17.4,7.7,20.8c0,0,22.8-23.2,26.8-25.1l3.4-8.3L864.5,220.9z"/>
<path class="st3" d="M832.1,248.2l-0.2,0.6l-7,18.6l-12.4,35.2c0,0-0.1,0.4-0.3,1c-2.1,6.4-13.1,41.1-15.3,51.2l-0.2-1.7
	c0,0,11.5-47.9,11.1-51.7c-0.4-3.4,18.5-43.6,22.4-51.8c0.6-0.4,1.1-0.8,1.4-1L832.1,248.2z"/>
<path class="st12" d="M830.8,248.2l-7.2,19.2l-12.4,35.2c0,0-0.1,0.4-0.3,1c-2.2,6.8-14.6,45.8-15.6,52.9
	c-1.1,7.8-16.8,50.1-16.8,50.1l-8.9,73.2c-8-6.2,3.4-66,3.4-66s12.8-88.7,15.8-118.2s19.3-38.1,19.3-38.1c7.5-0.4,14.3-3.7,18.5-6.3
	C828,250.3,829.4,249.3,830.8,248.2z"/>
<path class="st3" d="M920.8,719.1c-1.9,14.3-4.5,54-4.5,54c-8.9,13.4-28.7,6.2-28.7,6.2s-2.1-4-5.3-19.1s-5.1-68.5-5.1-68.5
	l-7.5-44.8c-6.8-17.2-8.3-37.6-8.3-37.6c-3-7.9-10.2-59.5-10.2-59.5s3,46.3,1.1,70.8s9.8,57.4,9.8,57.4s6.6,30.8,3.2,40.4
	s8.5,49.1,8.5,49.1c-1,11.5-34.9,6.8-34.9,6.8s-15.9-42.8-18.7-68.5c-1.7-15.5-4.4-30.9-8.2-46l-2.8-35.7l-4.9-21.1l-5.8-27.8
	c-6.6-20.4-8.6-54.5-8.6-54.5l-5.1-33.5c-3.3-16.6,1-36,3.9-46.2c1.3-4.4,2.3-7.1,2.3-7.1c2.9,2.1,19.7,4.5,28.4,6.5
	c4.8,1.1,9.6,1.5,14.5,1.2c21.9-1.7,43.7-5.7,64.8-11.9c1.4-0.4,2.2-0.7,2.2-0.7l0.5,3.8l1.1,9.1l1.9,16.2c0,0,5.7,86.3,2.3,98
	s2.3,51,2.3,51c-3.2,9.3,6.8,47.3,6.8,47.3S922.8,704.9,920.8,719.1z"/>
<path class="st15" d="M920.8,717.9c-1.9,14.3-4.5,54-4.5,54c-8.9,13.4-28.7,6.2-28.7,6.2s-2.1-4-5.3-19.1s-5.1-68.5-5.1-68.5
	l-7.5-44.9c-6.8-17.2-8.3-37.7-8.3-37.7c-3-7.9-10.2-59.5-10.2-59.5s3,46.3,1.1,70.8s9.8,57.4,9.8,57.4s6.6,30.8,3.2,40.4
	s8.5,49.1,8.5,49.1c-1,11.5-34.9,6.8-34.9,6.8s-15.9-42.7-18.7-68.4c-1.7-15.5-4.4-30.9-8.2-46l-2.8-35.7l-4.9-21.1l-5.8-27.8
	c-6.6-20.4-8.6-54.5-8.6-54.5l-5.1-33.5c-3.3-16.6,1-36,3.9-46.2c1.3-4.4,2.3-7.1,2.3-7.1c2.9,2.1,19.7,4.5,28.4,6.5
	c4.7,1.1,9.6,1.5,14.5,1.2c21.9-1.7,43.7-5.7,64.8-11.9l2.2-0.7l0.5,3.8l1.1,9.1l1.9,16.2c0,0,5.7,86.3,2.3,98
	c-3.4,11.7,2.3,51,2.3,51c-3.2,9.3,6.8,47.2,6.8,47.2S922.8,703.6,920.8,717.9z"/>
<path class="st3" d="M861.5,195c0,7.2-1.9,14.2-5.4,20.5c-6.4,1.1-13.2-0.1-18-4.4c-3.3-2.9-5.4-6.8-8.2-10.2
	c-1.8-2.1-3.8-4-5.9-5.8c-1.4-1.4-2.9-2.5-4.6-3.4c-1.7-0.9-3.8-0.9-5.5-0.1c-2.3,1.3-3,4.1-4.3,6.3c-1,1.9-2.7,3.4-4.7,4.1
	c-2.1,0.7-4.4-0.1-5.6-1.9c-1.4-2.4-0.4-6.1-2.7-7.6c-0.6-0.3-1.2-0.6-1.9-0.8c-3-1.4-3.3-5.4-3.6-8.7c-0.1-1.6-0.5-3.4-1.8-4.3
	s-3.2-0.4-4.8-0.4c-0.5,0-1,0-1.4-0.1c9.2-20.7,33.5-30.1,54.2-20.9C852,164,861.5,178.8,861.5,195L861.5,195z"/>
<path class="st16" d="M780.4,141.6c-3.2,2.4-5.2,6-5.5,9.9c-0.1,0.7,0,1.3,0.2,1.9c0.3,0.7,0.6,1.3,1,1.9c2.1,4.2-1.1,9.1-0.7,13.8
	c0.6,4.5,4.4,8,9,8c1.6,0,3.4-0.5,4.8,0.4s1.7,2.7,1.8,4.3c0.3,3.3,0.6,7.3,3.6,8.7c0.6,0.2,1.3,0.5,1.9,0.8
	c2.3,1.5,1.3,5.2,2.7,7.6c1.3,1.8,3.5,2.6,5.6,1.9c2-0.7,3.7-2.2,4.7-4.1c1.3-2.3,2.1-5,4.3-6.3c1.8-0.8,3.8-0.8,5.5,0.1
	c1.7,0.9,3.3,2,4.6,3.4c2.1,1.8,4,3.7,5.9,5.8c2.8,3.3,4.9,7.3,8.2,10.2c6.2,5.4,15.6,6,23.3,2.9c1.1-0.4,2.1-1,2.9-1.8
	c0.7-1,1.1-2.1,1.3-3.3c0.8-3.8,1-7.6,0.7-11.4c-0.3-3-0.9-6-0.7-9c0.2-3.2,1.4-6.3,1.5-9.6c0.3-5.7-2.5-11.1-6-15.6
	c-2.1-2.7-4.4-5.2-6.2-8.1c-1.6-2.5-2.7-5.3-4.4-7.7c-3.9-5.6-10.6-9-17.4-10.2s-13.8-0.4-20.5,0.7c-5.9,1-11.9,2.4-17.9,2.8
	C789.4,139.9,785.1,138.1,780.4,141.6z"/>
<path class="st3" d="M830.8,248.2l-7.2,19.2l-12.4,35.2c0,0-0.1,0.4-0.3,1l0,0l15.6-52.5C828,250.3,829.4,249.3,830.8,248.2z"/>
<path class="st17" d="M908.4,468.4c0,0,0.7,23.3-5.5,29.1L886.2,466l14-6.8L908.4,468.4z"/>
<path class="st3" d="M947.4,476.9c-7.7,8.9-41,10.5-41,10.5l-33-52c0,0-7.8-5.4-22.5-29.8s-14.2-43.2-13.4-57.3s10-54.4,10-54.4
	c1.4-9.1,22-66,22-66c2.2,4.3,6.2,7.9,10.9,10.9c12.7,8,30.4,11.3,30.4,11.3c28.6,4.1,23.3,33.6,23.3,33.6s0.3,114.7-1.4,128.4
	S947.4,476.9,947.4,476.9z"/>
<polygon class="st11" points="908.8,472.9 907.9,481.4 896.3,477.1 887.8,464.3 894.2,459.3 "/>
<path class="st3" d="M908.4,439.9l-6.1,0.6l-58.4,5.8c-9.4,0.9-18.9,0.5-28.1-1.4l-27.1-5.4c1.3-4.4,2.3-7.1,2.3-7.1
	c2.9,2.1,19.7,4.5,28.4,6.5c4.7,1.1,9.6,1.5,14.5,1.2c21.9-1.7,43.7-5.7,64.8-11.9l2.6,3.1L908.4,439.9z"/>
<g class="st18">
	<path d="M791.6,432.8c-0.2-0.1-0.4-0.2-0.6-0.3c0,0,0,0.1-0.1,0.1L791.6,432.8z"/>
	<path d="M915.8,653c0,0-10-37.9-6.8-47.2c0,0-5.7-39.3-2.3-51s-2.3-98-2.3-98l-1.9-16.2l-1.1-9.1l-0.4-3.8l-2.2,0.7l-1.4,0.4
		l0.2,1.5l1.1,9.1l1.9,16.2c0,0,5.7,86.3,2.3,98c-3.4,11.7,2.3,51,2.3,51c-3.2,9.3,6.8,47.2,6.8,47.2s7,50.6,5.1,64.9
		s-4.5,54-4.5,54c-6.5,9.8-18.8,8.6-25,7.2l0.1,0.2c0,0,19.8,7.2,28.7-6.2c0,0,2.5-39.8,4.5-54S915.8,653,915.8,653z"/>
	<path d="M865.4,717c3.4-9.6-3.2-40.4-3.2-40.4s-11.7-33-9.8-57.4c0.8-10.2,0.8-24.2,0.4-37c-2.7-16.6-5.3-35-5.3-35
		s3,46.3,1.1,70.8s9.8,57.4,9.8,57.4s6.6,30.8,3.2,40.4c-3.4,9.6,8.5,49.1,8.5,49.1c-0.8,9.2-22.7,8-31.4,7.2l0.3,0.9
		c0,0,33.8,4.7,34.9-6.8C873.9,766.1,862,726.6,865.4,717z"/>
</g>
<path class="st12" d="M948.6,476.9c-7.7,8.9-41,10.5-41,10.5l-33-52c0,0-7.8-5.4-22.5-29.8s-14.2-43.2-13.4-57.3s10-54.4,10-54.4
	c1.4-9.1,22-66,22-66c2.2,4.3,6.2,7.9,10.9,10.9c12.7,8,30.4,11.3,30.4,11.3c28.5,4.1,23.3,33.6,23.3,33.6s0.3,114.7-1.4,128.4
	S948.6,476.9,948.6,476.9z"/>
<path class="st3" d="M876.9,256.2l-7.2,2.7l4.8,3.4l-35.7,86.1c0.8-14,10-54.4,10-54.4c1.4-9.1,22-66,22-66
	c2.2,4.3,6.2,7.9,10.9,10.9L876.9,256.2z"/>
<polygon class="st3" points="885.5,409.6 922,400.2 926.8,415.1 889.5,424.1 "/>
<path class="st3" d="M906.4,262.3c0,0-16.6,15.6-10.3,50.4s16.3,72.6,16.3,72.6l-27,74.8c0,0,18.8,19.6,28.1,22l27-59.8
	c0,0,12.6-20.7,9.3-53.3s-15.5-85.2-15.5-85.2S934.1,251.7,906.4,262.3z"/>
<path class="st12" d="M907.7,262.3c0,0-16.6,15.6-10.4,50.4s16.3,72.6,16.3,72.6l-27,74.8c0,0,18.8,19.6,28.1,22l27-59.8
	c0,0,12.6-20.7,9.3-53.3s-15.5-85.2-15.5-85.2S935.4,251.7,907.7,262.3z"/>
<path class="st3" d="M887.5,461.6c0,0,21,29.1,19.5,36.9s-7.8,3.6-7.8,3.6l-8.3-11.4l-7.5-21.3C883.4,469.5,884.2,460.3,887.5,461.6
	z"/>
<path class="st3" d="M884.9,461.6c0,0,21,29.1,19.5,36.9s-7.8,3.6-7.8,3.6l-8.3-11.4l-7.4-21.3C880.9,469.5,881.6,460.3,884.9,461.6
	z"/>
<path class="st15" d="M886.2,461.6c0,0,21,29.1,19.5,36.9s-7.8,3.6-7.8,3.6l-8.3-11.4l-7.4-21.3
	C882.2,469.5,882.9,460.3,886.2,461.6z"/>
</svg>
